<svg width="127" height="16" viewBox="0 0 127 16" fill="none" xmlns="http://www.w3.org/2000/svg">
<path d="M90.407 6.0615C91.1128 6.0615 91.8026 6.27008 92.3894 6.66085C92.9762 7.05162 93.4335 7.60704 93.7036 8.25686C93.9736 8.90669 94.0443 9.62174 93.9066 10.3116C93.7689 11.0014 93.4291 11.6351 92.9301 12.1325C92.4311 12.6298 91.7953 12.9685 91.1032 13.1057C90.411 13.243 89.6936 13.1725 89.0416 12.9034C88.3896 12.6342 87.8323 12.1784 87.4402 11.5936C87.0482 11.0087 86.8389 10.3212 86.8389 9.61779C86.8399 8.67492 87.2162 7.77096 87.8851 7.10425C88.5541 6.43754 89.461 6.06253 90.407 6.0615V6.0615ZM90.407 4.0918C89.3099 4.0918 88.2375 4.41604 87.3253 5.02352C86.4131 5.63101 85.7021 6.49446 85.2823 7.50468C84.8625 8.51489 84.7526 9.6265 84.9666 10.6989C85.1807 11.7714 85.709 12.7565 86.4847 13.5297C87.2605 14.3028 88.2489 14.8294 89.3249 15.0427C90.4009 15.256 91.5162 15.1465 92.5298 14.7281C93.5434 14.3097 94.4097 13.601 95.0192 12.6919C95.6287 11.7827 95.954 10.7138 95.954 9.62037C95.954 8.1541 95.3696 6.74788 94.3294 5.71107C93.2891 4.67426 91.8782 4.0918 90.407 4.0918V4.0918Z" fill="#8D9299"/>
<path d="M14.4377 4.18945C14.709 4.18945 14.9692 4.29688 15.161 4.48809C15.3529 4.67929 15.4606 4.93863 15.4606 5.20903V10.7877C15.4617 11.6824 15.1862 12.5557 14.6717 13.2889C14.1572 14.022 13.4286 14.5794 12.585 14.8852C11.7414 15.191 10.8237 15.2305 9.95685 14.9981C9.08997 14.7658 8.31593 14.273 7.74 13.5867C7.16163 14.2709 6.3866 14.7616 5.51952 14.9929C4.65244 15.2241 3.73505 15.1846 2.89121 14.8797C2.04736 14.5748 1.31768 14.0192 0.800664 13.2879C0.283646 12.5567 0.00418335 11.6849 0 10.7903V5.20903C0.000341848 4.93851 0.108409 4.67918 0.300458 4.48801C0.492507 4.29684 0.752833 4.18945 1.02426 4.18945V4.18945C1.29557 4.18945 1.55577 4.29688 1.74761 4.48809C1.93945 4.67929 2.04723 4.93863 2.04723 5.20903V10.7582C2.03798 11.2999 2.22069 11.8276 2.56323 12.2483C2.86613 12.6201 3.27673 12.8897 3.73902 13.0203C4.20131 13.1509 4.69277 13.1361 5.14635 12.9781C5.59994 12.82 5.99355 12.5264 6.27349 12.1371C6.55343 11.7479 6.70607 11.2821 6.71058 10.8032V5.20903C6.71058 4.93863 6.81836 4.67929 7.0102 4.48809C7.20205 4.29688 7.46224 4.18945 7.73355 4.18945V4.18945C7.868 4.18928 8.00116 4.21553 8.12542 4.2667C8.24968 4.31786 8.36261 4.39294 8.45774 4.48763C8.55286 4.58232 8.62833 4.69477 8.67982 4.81855C8.73131 4.94234 8.75781 5.07503 8.75781 5.20903V10.8032C8.75314 11.1082 8.81129 11.4109 8.92866 11.6927C9.04604 11.9744 9.22015 12.2292 9.44022 12.4412C9.67266 12.6672 9.94972 12.8426 10.2538 12.9562C10.5579 13.0699 10.8823 13.1192 11.2066 13.1012C11.5308 13.0832 11.8478 12.9982 12.1373 12.8516C12.4268 12.705 12.6826 12.5 12.8884 12.2496C13.2312 11.829 13.414 11.3013 13.4044 10.7595V5.20903C13.4044 4.93863 13.5122 4.67929 13.704 4.48809C13.8959 4.29688 14.1561 4.18945 14.4274 4.18945H14.4377Z" fill="#8D9299"/>
<path d="M81.8312 4.18945C82.1025 4.18945 82.3627 4.29688 82.5545 4.48809C82.7464 4.67929 82.8541 4.93862 82.8541 5.20903V10.7877C82.8552 11.6824 82.5797 12.5557 82.0652 13.2889C81.5507 14.022 80.822 14.5794 79.9784 14.8852C79.1349 15.191 78.2172 15.2305 77.3503 14.9981C76.4835 14.7658 75.7094 14.273 75.1335 13.5867C74.5551 14.2709 73.7801 14.7616 72.913 14.9929C72.0459 15.2241 71.1285 15.1846 70.2847 14.8797C69.4409 14.5748 68.7112 14.0192 68.1942 13.2879C67.6771 12.5567 67.3977 11.6849 67.3935 10.7903V5.20903C67.3935 4.93862 67.5013 4.67929 67.6931 4.48809C67.885 4.29688 68.1452 4.18945 68.4165 4.18945V4.18945C68.6878 4.18945 68.948 4.29688 69.1398 4.48809C69.3317 4.67929 69.4394 4.93862 69.4394 5.20903V10.7582C69.4296 11.3 69.6124 11.8279 69.9554 12.2483C70.1613 12.4988 70.4171 12.7039 70.7067 12.8507C70.9962 12.9974 71.3133 13.0825 71.6376 13.1007C71.962 13.1188 72.2866 13.0695 72.5908 12.956C72.895 12.8425 73.1723 12.6672 73.4049 12.4412C73.625 12.2283 73.8001 11.9738 73.9199 11.6925C74.0398 11.4112 74.1019 11.1088 74.1028 10.8032V5.20903C74.1028 4.93862 74.2106 4.67929 74.4024 4.48809C74.5942 4.29688 74.8544 4.18945 75.1257 4.18945V4.18945C75.3971 4.18945 75.6573 4.29688 75.8491 4.48809C76.0409 4.67929 76.1487 4.93862 76.1487 5.20903V10.8032C76.1449 11.1087 76.204 11.4117 76.3225 11.6934C76.441 11.9752 76.6163 12.2297 76.8376 12.4412C77.07 12.6672 77.3471 12.8426 77.6512 12.9562C77.9552 13.0699 78.2797 13.1192 78.6039 13.1012C78.9282 13.0832 79.2451 12.9982 79.5346 12.8516C79.8242 12.705 80.0799 12.5 80.2857 12.2496C80.6286 11.829 80.8113 11.3013 80.8017 10.7595V5.20903C80.8021 4.93851 80.9101 4.67918 81.1022 4.48801C81.2942 4.29684 81.5546 4.18945 81.826 4.18945H81.8312Z" fill="#8D9299"/>
<path d="M31.129 14.1241V9.75269C31.1151 8.3417 31.6404 6.9783 32.5983 5.93926C33.7017 4.77098 35.0411 4.1864 36.6167 4.18555C38.0762 4.18589 39.4759 4.76382 40.508 5.79232C41.5402 6.82082 42.1204 8.21571 42.1211 9.6704V14.1215C42.1207 14.3921 42.0127 14.6514 41.8206 14.8426C41.6286 15.0337 41.3683 15.1411 41.0968 15.1411V15.1411C40.8255 15.1411 40.5653 15.0337 40.3735 14.8425C40.1816 14.6513 40.0739 14.392 40.0739 14.1215V9.67298C40.0795 9.2243 39.9941 8.77911 39.8227 8.36417C39.6514 7.94924 39.3976 7.57311 39.0767 7.2584C38.755 6.93362 38.3721 6.67553 37.9498 6.49899C37.5276 6.32246 37.0745 6.23097 36.6167 6.22983C36.1635 6.22284 35.7138 6.30845 35.2951 6.48137C34.8764 6.65429 34.4978 6.91086 34.1824 7.23526C33.8573 7.55321 33.6003 7.93369 33.4271 8.35361C33.2539 8.77354 33.1681 9.22415 33.1749 9.67812V14.1293C33.1749 14.3997 33.0672 14.659 32.8753 14.8502C32.6835 15.0414 32.4233 15.1488 32.152 15.1488C32.0172 15.1488 31.8837 15.1223 31.7593 15.0707C31.6348 15.0192 31.5218 14.9436 31.4268 14.8484C31.3317 14.7532 31.2565 14.6402 31.2054 14.5159C31.1543 14.3916 31.1283 14.2584 31.129 14.1241V14.1241Z" fill="#8D9299"/>
<path d="M46.0904 4.18945C46.3617 4.18945 46.6219 4.29688 46.8138 4.48809C47.0056 4.67929 47.1134 4.93862 47.1134 5.20903V14.1255C47.1134 14.3959 47.0056 14.6552 46.8138 14.8464C46.6219 15.0376 46.3617 15.145 46.0904 15.145C45.8191 15.145 45.5589 15.0376 45.3671 14.8464C45.1752 14.6552 45.0674 14.3959 45.0674 14.1255V5.20903C45.0674 4.93862 45.1752 4.67929 45.3671 4.48809C45.5589 4.29688 45.8191 4.18945 46.0904 4.18945V4.18945Z" fill="#8D9299"/>
<path d="M60.3888 4.1894C60.5601 4.18926 60.7288 4.23226 60.8791 4.31442C61.0294 4.39657 61.1564 4.51522 61.2484 4.65936C61.3404 4.80349 61.3944 4.96845 61.4053 5.13892C61.4163 5.3094 61.3839 5.47988 61.3111 5.63455L57.3366 14.1203C57.027 14.7991 56.4947 15.139 55.7396 15.1398C55.3997 15.1558 55.0632 15.0669 54.7758 14.8854C54.4884 14.7039 54.2642 14.4385 54.1335 14.1254L50.1629 5.63969C50.0918 5.48374 50.0609 5.31255 50.073 5.14166C50.0851 4.97078 50.1398 4.80562 50.2322 4.66117C50.3246 4.51672 50.4517 4.39755 50.6021 4.31449C50.7524 4.23143 50.9211 4.18711 51.093 4.18555C51.288 4.18644 51.4786 4.24235 51.643 4.34679C51.8074 4.45123 51.9387 4.59993 52.0218 4.77569L55.4816 12.1583C55.5044 12.209 55.5414 12.2521 55.5882 12.2824C55.635 12.3126 55.6896 12.3287 55.7454 12.3287C55.8012 12.3287 55.8558 12.3126 55.9026 12.2824C55.9494 12.2521 55.9864 12.209 56.0092 12.1583L59.4703 4.77055C59.5526 4.59568 59.6832 4.4478 59.8468 4.3442C60.0103 4.2406 60.2001 4.18557 60.3939 4.18555L60.3888 4.1894Z" fill="#8D9299"/>
<path d="M28.7902 9.66822C28.7902 8.41378 28.3581 7.19738 27.5661 6.22237C26.7742 5.24736 25.6705 4.57283 24.4395 4.31155C23.2085 4.05026 21.9248 4.21804 20.803 4.78686C19.6812 5.35568 18.7893 6.29105 18.2764 7.43661C17.7635 8.58217 17.6607 9.86849 17.9852 11.0805C18.3097 12.2926 19.0417 13.3569 20.059 14.0955C21.0763 14.8342 22.3172 15.2024 23.5742 15.1386C24.8312 15.0749 26.0281 14.583 26.9649 13.7452C27.1169 13.605 27.223 13.4224 27.2694 13.2213C27.3159 13.0201 27.3006 12.8097 27.2254 12.6173C27.1503 12.425 27.0188 12.2596 26.8481 12.1427C26.6774 12.0258 26.4754 11.9628 26.2683 11.9619C26.0086 11.9656 25.7591 12.0634 25.5665 12.2371C25.137 12.6135 24.6201 12.8771 24.0625 13.004C23.5049 13.131 22.9244 13.1172 22.3735 12.964C21.8226 12.8108 21.3188 12.5229 20.9078 12.1266C20.4967 11.7302 20.1914 11.2379 20.0195 10.6942H27.7595C28.0328 10.697 28.296 10.5916 28.4914 10.4012C28.6868 10.2107 28.7985 9.95085 28.8019 9.6785L28.7902 9.66822ZM20.0182 8.63965C20.2372 7.94337 20.6735 7.33494 21.2635 6.90298C21.8536 6.47101 22.5666 6.23807 23.2987 6.23807C24.0308 6.23807 24.7438 6.47101 25.3339 6.90298C25.9239 7.33494 26.3602 7.94337 26.5792 8.63965H20.0182Z" fill="#8D9299"/>
<path d="M125.139 0C124.868 0 124.608 0.107417 124.416 0.298624C124.224 0.489831 124.116 0.749163 124.116 1.01957V5.56585C123.139 4.77428 121.922 4.33732 120.663 4.32676C119.404 4.3162 118.179 4.73268 117.189 5.50777C116.2 6.28285 115.504 7.37045 115.216 8.59187C114.928 9.8133 115.066 11.0959 115.607 12.229C116.147 13.3621 117.058 14.2782 118.19 14.8269C119.322 15.3756 120.608 15.5243 121.836 15.2484C123.064 14.9726 124.161 14.2886 124.948 13.309C125.734 12.3293 126.163 11.1122 126.163 9.85757V1.02471C126.164 0.890325 126.138 0.757161 126.086 0.632859C126.035 0.508558 125.96 0.39557 125.865 0.300366C125.769 0.205162 125.656 0.129617 125.532 0.0780735C125.407 0.0265297 125.274 -9.59214e-07 125.139 0V0ZM120.624 13.2866C118.68 13.2866 117.1 11.7437 117.1 9.85243C117.1 7.96114 118.68 6.41828 120.624 6.41828C122.568 6.41828 124.148 7.96114 124.148 9.85243C124.148 11.7437 122.56 13.2866 120.618 13.2866H120.624Z" fill="#8D9299"/>
<path d="M113.012 1.01957C113.012 0.456478 112.554 0 111.989 0C111.424 0 110.966 0.456478 110.966 1.01957V14.1249C110.966 14.688 111.424 15.1444 111.989 15.1444C112.554 15.1444 113.012 14.688 113.012 14.1249V1.01957Z" fill="#8D9299"/>
<path d="M103.488 4.08984C102.087 4.09099 100.739 4.6199 99.7142 5.57044C98.6889 6.52098 98.0623 7.82282 97.96 9.2147V14.1313C97.9581 14.3995 98.0613 14.6578 98.2477 14.8513C98.3364 14.9454 98.4436 15.0204 98.5625 15.0717C98.6814 15.123 98.8096 15.1495 98.9392 15.1496C99.0706 15.1469 99.2003 15.1184 99.3207 15.0658C99.4411 15.0132 99.55 14.9374 99.641 14.8428C99.7321 14.7483 99.8035 14.6368 99.8513 14.5147C99.8991 14.3926 99.9223 14.2623 99.9196 14.1313V9.7187C99.9196 7.81584 101.377 6.17399 103.284 6.06856C104.119 6.02169 104.945 6.26899 105.616 6.76724C106.287 7.26548 106.761 7.98297 106.955 8.79427C107.007 9.0089 107.13 9.19984 107.304 9.3363C107.478 9.47276 107.693 9.54678 107.915 9.54642C108.065 9.54649 108.213 9.51262 108.348 9.44737C108.483 9.38213 108.602 9.28721 108.695 9.16974C108.787 9.05228 108.852 8.91534 108.884 8.76924C108.917 8.62313 108.915 8.47168 108.88 8.32627C108.589 7.1193 107.899 6.04509 106.92 5.27661C105.942 4.50813 104.733 4.09011 103.488 4.08984V4.08984Z" fill="#8D9299"/>
<path d="M46.0904 2.69743C46.8378 2.69743 47.4436 2.09359 47.4436 1.34871C47.4436 0.60384 46.8378 0 46.0904 0C45.343 0 44.7372 0.60384 44.7372 1.34871C44.7372 2.09359 45.343 2.69743 46.0904 2.69743Z" fill="#8D9299"/>
</svg>
