<svg width="40" height="40" viewBox="0 0 40 40" fill="none" xmlns="http://www.w3.org/2000/svg">
<path fill-rule="evenodd" clip-rule="evenodd" d="M23.4732 7.39189C25.9958 4.86937 30.0856 4.86937 32.6081 7.39189C35.1306 9.91442 35.1306 14.0042 32.6081 16.5268L15.0742 34.0607C14.7929 34.342 14.4114 34.5 14.0136 34.5H7C6.17157 34.5 5.5 33.8284 5.5 33V25.9864C5.5 25.5886 5.65804 25.2071 5.93934 24.9258L23.4732 7.39189ZM30.4868 9.51322C29.1358 8.16226 26.9455 8.16226 25.5945 9.51322L23.5868 11.521L28.479 16.4132L30.4868 14.4054C31.8377 13.0545 31.8377 10.8642 30.4868 9.51322ZM26.3577 18.5345L21.4655 13.6423L8.5 26.6078V31.5H13.3922L26.3577 18.5345Z" fill="#2E6FF2"/>
</svg>
