<svg width="40" height="40" viewBox="0 0 40 40" fill="none" xmlns="http://www.w3.org/2000/svg">
<path d="M20 10.3333C16.5942 10.3333 13.8333 13.0942 13.8333 16.5V18.8333C13.8333 19.6618 14.5049 20.3333 15.3333 20.3333C16.1617 20.3333 16.8333 19.6618 16.8333 18.8333V16.5C16.8333 14.7511 18.2511 13.3333 20 13.3333C20.8284 13.3333 21.5 12.6618 21.5 11.8333C21.5 11.0049 20.8284 10.3333 20 10.3333Z" fill="#2E6FF2"/>
<path fill-rule="evenodd" clip-rule="evenodd" d="M8 16.5C8 9.87258 13.3726 4.5 20 4.5C26.6274 4.5 32 9.87258 32 16.5V25.8749C34.0487 26.675 35.5 28.668 35.5 31V34C35.5 34.8284 34.8284 35.5 34 35.5H6C5.17157 35.5 4.5 34.8284 4.5 34V31C4.5 28.668 5.95132 26.675 8 25.8749V16.5ZM7.5 31C7.5 29.6193 8.61929 28.5 10 28.5H30C31.3807 28.5 32.5 29.6193 32.5 31V32.5H7.5V31ZM29 16.5V25.5H11V16.5C11 11.5294 15.0294 7.5 20 7.5C24.9706 7.5 29 11.5294 29 16.5Z" fill="#2E6FF2"/>
</svg>
