<svg width="18" height="18" viewBox="0 0 18 18" fill="none" xmlns="http://www.w3.org/2000/svg">
<circle cx="9" cy="9" r="9" fill="#8D9299"/>
<path d="M6.31825 5.68185C6.14251 5.50611 5.85759 5.50611 5.68185 5.68185C5.50611 5.85759 5.50611 6.14251 5.68185 6.31825L8.36365 9.00005L5.68185 11.6819C5.50611 11.8576 5.50611 12.1425 5.68185 12.3182C5.85759 12.494 6.14251 12.494 6.31825 12.3182L9.00005 9.63645L11.6215 12.2579C11.7973 12.4337 12.0822 12.4337 12.2579 12.2579C12.4337 12.0822 12.4337 11.7973 12.2579 11.6215L9.63644 9.00005L12.2579 6.37855C12.4337 6.20281 12.4337 5.91789 12.2579 5.74215C12.0822 5.56642 11.7973 5.56642 11.6215 5.74215L9.00005 8.36365L6.31825 5.68185Z" fill="white"/>
</svg>
