<svg width="630" height="166" viewBox="0 0 630 166" fill="none" xmlns="http://www.w3.org/2000/svg">
<path d="M164.072 85.1988V62.9688H146.272V45.1688H124.042V62.9688H109.242V85.1988H124.042V99.7688C124.042 125.049 139.382 140.749 164.072 140.749V118.519C155.272 118.519 146.272 116.289 146.272 99.7688V85.1988H164.072Z" fill="#121314"/>
<path d="M517.522 62.9688H495.292V129.909H517.522V62.9688Z" fill="#121314"/>
<path d="M224.652 141.019C200.072 141.019 180.062 122.509 180.062 99.7687V62.9688H202.292V99.7687C202.292 110.259 212.323 118.789 224.643 118.789C236.963 118.789 246.993 110.259 246.993 99.7687V62.9688H269.223V129.909H255.053C247.083 136.799 236.383 141.029 224.633 141.029L224.652 141.019Z" fill="#121314"/>
<path d="M623.832 129.909H601.602V93.1089C601.602 82.6189 591.572 74.0889 579.252 74.0889C566.932 74.0889 556.902 82.6189 556.902 93.1089V129.909H534.672V62.9689H548.842C556.812 56.0789 567.512 51.8489 579.262 51.8489C603.842 51.8489 623.852 70.3589 623.852 93.0989V129.899L623.832 129.909Z" fill="#121314"/>
<path d="M350.172 29.4988V57.8888C343.592 54.0588 335.962 51.8588 327.822 51.8588C303.242 51.8588 283.232 71.8588 283.232 96.4488C283.232 121.039 303.232 141.039 327.822 141.039C339.232 141.039 349.652 136.729 357.552 129.649H372.412V29.4988H350.182H350.172ZM327.822 118.789C315.492 118.789 305.472 108.759 305.472 96.4388C305.472 84.1188 315.502 74.0888 327.822 74.0888C340.142 74.0888 350.172 84.1188 350.172 96.4388C350.172 108.759 340.142 118.789 327.822 118.789Z" fill="#121314"/>
<path d="M455.942 62.9688V99.7687C455.942 110.259 445.912 118.789 433.592 118.789C421.272 118.789 411.242 110.259 411.242 99.7687V62.9688H389.012V99.7687C389.012 122.519 409.012 141.019 433.602 141.019C441.742 141.019 449.382 138.979 455.952 135.439V161.279H478.182V62.9688H455.952H455.942Z" fill="#121314"/>
<path d="M506.403 53.5788C514.278 53.5788 520.663 47.1944 520.663 39.3188C520.663 31.4433 514.278 25.0588 506.403 25.0588C498.527 25.0588 492.143 31.4433 492.143 39.3188C492.143 47.1944 498.527 53.5788 506.403 53.5788Z" fill="#121314"/>
<path d="M55.4919 141.019C45.7519 140.939 33.2019 139.859 22.3019 132.339C12.6019 125.649 6.88185 114.189 7.00185 101.679L29.2319 101.889C29.1819 106.929 31.3719 111.579 34.9319 114.039C39.5719 117.239 45.9719 118.709 55.7019 118.789H55.7618C60.2818 118.829 71.2219 118.229 75.2219 111.859C77.1119 108.849 77.5119 104.829 76.2319 101.609C75.0319 98.5788 72.6119 96.4288 69.0419 95.2188C64.4818 93.6688 59.1418 93.2788 53.5019 92.8688C50.2818 92.6388 46.9418 92.3988 43.5318 91.9288C32.0019 90.3488 23.3119 86.2088 17.7219 79.6288C7.39185 67.4788 8.40185 48.2488 19.9819 36.7588C28.1919 28.5988 40.4019 24.4488 54.3619 25.0588C82.4519 26.2988 94.8719 44.8388 94.7319 62.6588L72.5019 62.4788C72.5819 53.2188 65.7918 47.8188 53.3918 47.2688C48.9319 47.0688 40.7219 47.4988 35.6519 52.5288C32.3019 55.8488 31.8319 61.9088 34.6619 65.2288C36.5519 67.4488 40.7719 69.1088 46.5419 69.8988C49.2519 70.2688 52.0919 70.4788 55.1018 70.6888C61.5919 71.1588 68.9419 71.6888 76.2119 74.1588C85.9319 77.4688 93.2819 84.2888 96.8919 93.3788C100.832 103.269 99.7619 114.599 94.0419 123.689C86.9219 134.999 73.2619 141.159 55.5819 141.009H55.4919V141.019Z" fill="#121314"/>
</svg>
