<svg width="40" height="40" viewBox="0 0 40 40" fill="none" xmlns="http://www.w3.org/2000/svg">
<path fill-rule="evenodd" clip-rule="evenodd" d="M20 5.5C11.9919 5.5 5.5 11.9919 5.5 20C5.5 28.0081 11.9919 34.5 20 34.5C28.0081 34.5 34.5 28.0081 34.5 20C34.5 11.9919 28.0081 5.5 20 5.5ZM2.5 20C2.5 10.335 10.335 2.5 20 2.5C29.665 2.5 37.5 10.335 37.5 20C37.5 29.665 29.665 37.5 20 37.5C10.335 37.5 2.5 29.665 2.5 20Z" fill="#2E6FF2"/>
<path fill-rule="evenodd" clip-rule="evenodd" d="M17 12.5C17.8284 12.5 18.5 13.1716 18.5 14V26C18.5 26.8284 17.8284 27.5 17 27.5C16.1716 27.5 15.5 26.8284 15.5 26V14C15.5 13.1716 16.1716 12.5 17 12.5Z" fill="#2E6FF2"/>
<path fill-rule="evenodd" clip-rule="evenodd" d="M15.5 14C15.5 13.1716 16.1716 12.5 17 12.5H21C24.0376 12.5 26.5 14.9624 26.5 18C26.5 21.0376 24.0376 23.5 21 23.5H17C16.1716 23.5 15.5 22.8284 15.5 22C15.5 21.1716 16.1716 20.5 17 20.5H21C22.3807 20.5 23.5 19.3807 23.5 18C23.5 16.6193 22.3807 15.5 21 15.5H17C16.1716 15.5 15.5 14.8284 15.5 14Z" fill="#2E6FF2"/>
</svg>
