<svg width="40" height="40" viewBox="0 0 40 40" fill="none" xmlns="http://www.w3.org/2000/svg">
<path fill-rule="evenodd" clip-rule="evenodd" d="M10.705 10.1984C9.51369 6.3724 13.6505 3.10159 17.1036 5.10233L34.832 15.3741C38.3893 17.4352 38.3893 22.5645 34.832 24.6256L17.1036 34.8974C13.6505 36.8982 9.51369 33.6273 10.705 29.8013L13.7569 19.9999L10.705 10.1984ZM16.4319 21.4999L13.5693 30.6932C13.1966 31.8904 14.4942 32.9422 15.5996 32.3016L33.328 22.0299C34.8907 21.1245 34.8907 18.8753 33.328 17.9699L15.5996 7.6981C14.4942 7.05759 13.1966 8.10936 13.5693 9.30653L16.4319 18.4999L23.9157 18.4999C24.7441 18.4999 25.4157 19.1714 25.4157 19.9999C25.4157 20.8283 24.7441 21.4999 23.9157 21.4999H16.4319Z" fill="white"/>
<path fill-rule="evenodd" clip-rule="evenodd" d="M3.5 19.9999C3.5 19.1714 4.17157 18.4999 5 18.4999H9C9.82843 18.4999 10.5 19.1714 10.5 19.9999C10.5 20.8283 9.82843 21.4999 9 21.4999H5C4.17157 21.4999 3.5 20.8283 3.5 19.9999Z" fill="white"/>
<path fill-rule="evenodd" clip-rule="evenodd" d="M2.5 14.9999C2.5 14.1714 3.17157 13.4999 4 13.4999H8C8.82843 13.4999 9.5 14.1714 9.5 14.9999C9.5 15.8283 8.82843 16.4999 8 16.4999H4C3.17157 16.4999 2.5 15.8283 2.5 14.9999Z" fill="white"/>
<path fill-rule="evenodd" clip-rule="evenodd" d="M2.5 24.9999C2.5 24.1714 3.17157 23.4999 4 23.4999H8C8.82843 23.4999 9.5 24.1714 9.5 24.9999C9.5 25.8283 8.82843 26.4999 8 26.4999H4C3.17157 26.4999 2.5 25.8283 2.5 24.9999Z" fill="white"/>
</svg>
