<svg width="40" height="40" viewBox="0 0 40 40" fill="none" xmlns="http://www.w3.org/2000/svg">
<path fill-rule="evenodd" clip-rule="evenodd" d="M32.5 9.4312C32.5 8.37 31.4282 7.64436 30.4429 8.03848L25.5 10.0156V23.9845L30.4429 25.9617C31.4282 26.3558 32.5 25.6302 32.5 24.569V9.4312ZM22.5 23.5001V10.5001H14C10.4101 10.5001 7.5 13.4102 7.5 17.0001C7.5 20.5899 10.4101 23.5001 14 23.5001H22.5ZM17.8288 26.5001H13.7973L14.6643 31.2683C14.9074 32.6053 16.3299 33.3696 17.579 32.8343C18.5334 32.4253 19.0498 31.3841 18.798 30.3767L17.8288 26.5001ZM10.6368 25.8876L11.7126 31.8049C12.3005 35.0379 15.7404 36.8862 18.7607 35.5917C21.0685 34.6027 22.3174 32.085 21.7084 29.6491L20.9212 26.5001H23.7111L29.3287 28.7471C32.2846 29.9295 35.5 27.7526 35.5 24.569V9.4312C35.5 6.2476 32.2846 4.07069 29.3287 5.25305L23.7111 7.5001H14C8.75329 7.5001 4.5 11.7534 4.5 17.0001C4.5 21.0626 7.05003 24.5296 10.6368 25.8876Z" fill="#2E6FF2"/>
</svg>
