<svg width="40" height="40" viewBox="0 0 40 40" fill="none" xmlns="http://www.w3.org/2000/svg">
<path d="M20 6.5C20.4411 6.5 20.8377 6.69041 21.1122 6.99351L31.1099 17.991C31.6672 18.604 31.622 19.5526 31.009 20.1099C30.396 20.6672 29.4474 20.622 28.8901 20.009L21.5 11.8799V32C21.5 32.8284 20.8284 33.5 20 33.5C19.1716 33.5 18.5 32.8284 18.5 32V11.8799L11.1099 20.009C10.5527 20.622 9.60399 20.6672 8.991 20.1099C8.37802 19.5526 8.33284 18.604 8.8901 17.991L18.8848 6.99684C19.1594 6.6918 19.5573 6.5 20 6.5C20 6.5 20 6.5 20 6.5Z" fill="white"/>
</svg>
