<svg width="40" height="40" viewBox="0 0 40 40" fill="none" xmlns="http://www.w3.org/2000/svg">
<path fill-rule="evenodd" clip-rule="evenodd" d="M25.4233 5.94147C27.4265 6.05332 29.3195 6.98004 30.7161 8.47823C32.0116 9.86802 33.0671 11.5872 33.1289 13.8662C33.1613 15.062 33.0019 16.0742 32.6032 17.0155C32.2118 17.9395 31.6303 18.6969 30.9785 19.425C30.9635 19.4418 30.948 19.4583 30.9323 19.4744L27.3581 23.1219C27.3497 23.1305 27.3411 23.139 27.3325 23.1474C26.4358 24.0194 25.616 24.51 24.6314 24.851C23.6005 25.2082 22.5004 25.3209 21.4087 25.1882C20.3176 25.0555 19.2627 24.6813 18.3127 24.0997C17.363 23.5182 16.5371 22.7413 15.8866 21.8244C15.4073 21.1487 15.5664 20.2124 16.2421 19.7331C16.9177 19.2537 17.854 19.4128 18.3334 20.0885C18.7543 20.6817 19.283 21.1762 19.8792 21.5411C20.475 21.906 21.1211 22.1311 21.7708 22.2101C22.4198 22.289 23.0596 22.2207 23.6494 22.0163C24.1962 21.8269 24.639 21.5795 25.2286 21.0087L28.7653 17.3994C29.3156 16.7821 29.6403 16.3187 29.8407 15.8455C30.0364 15.3834 30.1535 14.8156 30.13 13.9475C30.0949 12.6529 29.5239 11.599 28.5217 10.5239C27.6205 9.55712 26.44 9.00292 25.256 8.9368C24.0821 8.87125 22.9763 9.28706 22.1582 10.0874L20.1176 12.157C19.5359 12.7469 18.5862 12.7535 17.9963 12.1719C17.4064 11.5903 17.3997 10.6405 17.9814 10.0506L20.0308 7.97214L20.0472 7.95577C21.4769 6.54988 23.4137 5.82926 25.4233 5.94147Z" fill="#2E6FF2"/>
<path fill-rule="evenodd" clip-rule="evenodd" d="M13.8179 33.2997C11.8147 33.1879 9.92174 32.2612 8.52513 30.763C7.22957 29.3732 6.17413 27.654 6.11233 25.375C6.0799 24.1792 6.23935 23.167 6.63804 22.2257C7.02939 21.3017 7.61093 20.5443 8.26271 19.8162C8.27775 19.7994 8.29317 19.7829 8.30895 19.7668L11.8831 16.1193C11.8915 16.1107 11.9001 16.1022 11.9087 16.0938C12.8054 15.2218 13.6252 14.7312 14.6098 14.3902C15.6408 14.033 16.7408 13.9203 17.8325 14.053C18.9236 14.1857 19.9785 14.5599 20.9285 15.1415C21.8782 15.723 22.7041 16.5 23.3546 17.4168C23.8339 18.0925 23.6748 19.0288 22.9991 19.5082C22.3235 19.9875 21.3872 19.8284 20.9078 19.1527C20.4869 18.5595 19.9582 18.065 19.362 17.7001C18.7662 17.3352 18.1201 17.1101 17.4704 17.0311C16.8214 16.9522 16.1816 17.0206 15.5918 17.2249C15.045 17.4143 14.6022 17.6617 14.0127 18.2325L10.4759 21.8418C9.92561 22.4591 9.60088 22.9225 9.40049 23.3957C9.20477 23.8578 9.08768 24.4256 9.11122 25.2937C9.14633 26.5883 9.71729 27.6422 10.7195 28.7174C11.6207 29.6841 12.8012 30.2383 13.9852 30.3044C15.1591 30.37 16.2649 29.9541 17.083 29.1539L19.1236 27.0842C19.7053 26.4944 20.655 26.4877 21.2449 27.0693C21.8348 27.651 21.8415 28.6007 21.2598 29.1906L19.2104 31.2691L19.194 31.2854C17.7643 32.6913 15.8275 33.412 13.8179 33.2997Z" fill="#2E6FF2"/>
</svg>
