<svg width="40" height="40" viewBox="0 0 40 40" fill="none" xmlns="http://www.w3.org/2000/svg">
<path d="M7 3.5C5.067 3.5 3.5 5.067 3.5 7V33C3.5 34.933 5.067 36.5 7 36.5H33C34.933 36.5 36.5 34.933 36.5 33V7C36.5 5.067 34.933 3.5 33 3.5H7Z" fill="#2E6FF2"/>
<path d="M21.5 13C21.5 12.1716 20.8284 11.5 20 11.5C19.1716 11.5 18.5 12.1716 18.5 13V18.5H13C12.1716 18.5 11.5 19.1716 11.5 20C11.5 20.8284 12.1716 21.5 13 21.5H18.5V27C18.5 27.8284 19.1716 28.5 20 28.5C20.8284 28.5 21.5 27.8284 21.5 27V21.5H27C27.8284 21.5 28.5 20.8284 28.5 20C28.5 19.1716 27.8284 18.5 27 18.5H21.5V13Z" fill="white"/>
</svg>
