<svg width="40" height="40" viewBox="0 0 40 40" fill="none" xmlns="http://www.w3.org/2000/svg">
<path fill-rule="evenodd" clip-rule="evenodd" d="M27.6667 7.5C26.1019 7.5 24.8333 8.76853 24.8333 10.3333C24.8333 11.8981 26.1019 13.1667 27.6667 13.1667C29.2315 13.1667 30.5 11.8981 30.5 10.3333C30.5 8.76853 29.2315 7.5 27.6667 7.5ZM21.8333 10.3333C21.8333 7.11167 24.445 4.5 27.6667 4.5C30.8883 4.5 33.5 7.11167 33.5 10.3333C33.5 13.555 30.8883 16.1667 27.6667 16.1667C25.9915 16.1667 24.4813 15.4606 23.4174 14.3298L15.8449 17.9514C16.0534 18.5513 16.1667 19.1957 16.1667 19.8667C16.1667 20.5376 16.0534 21.182 15.8449 21.782L23.4174 25.4035C24.4813 24.2727 25.9915 23.5667 27.6667 23.5667C30.8883 23.5667 33.5 26.1783 33.5 29.4C33.5 32.6216 30.8883 35.2333 27.6667 35.2333C24.445 35.2333 21.8333 32.6216 21.8333 29.4C21.8333 28.9342 21.8879 28.4811 21.9911 28.0469L14.1362 24.2902C13.115 25.1688 11.7862 25.7 10.3333 25.7C7.11167 25.7 4.5 23.0883 4.5 19.8667C4.5 16.645 7.11167 14.0333 10.3333 14.0333C11.7862 14.0333 13.115 14.5645 14.1362 15.4432L21.9911 11.6865C21.8879 11.2522 21.8333 10.7991 21.8333 10.3333ZM12.583 18.1439C12.0651 17.4687 11.2501 17.0333 10.3333 17.0333C8.76853 17.0333 7.5 18.3019 7.5 19.8667C7.5 21.4315 8.76853 22.7 10.3333 22.7C11.25 22.7 12.0651 22.2646 12.583 21.5894C12.5947 21.573 12.6068 21.5569 12.6192 21.5411C12.9634 21.072 13.1667 20.4931 13.1667 19.8667C13.1667 19.2402 12.9634 18.6613 12.6192 18.1922C12.6068 18.1764 12.5947 18.1603 12.583 18.1439ZM27.6667 26.5667C26.1019 26.5667 24.8333 27.8352 24.8333 29.4C24.8333 30.9648 26.1019 32.2333 27.6667 32.2333C29.2315 32.2333 30.5 30.9648 30.5 29.4C30.5 27.8352 29.2315 26.5667 27.6667 26.5667Z" fill="#47494D"/>
</svg>
