<svg width="40" height="40" viewBox="0 0 40 40" fill="none" xmlns="http://www.w3.org/2000/svg">
<path fill-rule="evenodd" clip-rule="evenodd" d="M20 5.5C11.9919 5.5 5.5 11.9919 5.5 20C5.5 28.0081 11.9919 34.5 20 34.5C28.0081 34.5 34.5 28.0081 34.5 20C34.5 11.9919 28.0081 5.5 20 5.5ZM2.5 20C2.5 10.335 10.335 2.5 20 2.5C29.665 2.5 37.5 10.335 37.5 20C37.5 29.665 29.665 37.5 20 37.5C10.335 37.5 2.5 29.665 2.5 20Z" fill="#D9DBE0"/>
<path fill-rule="evenodd" clip-rule="evenodd" d="M21.9031 15.1649C21.0877 14.3494 19.2937 14.2674 18.3372 15.8614C17.911 16.5718 16.9896 16.8022 16.2793 16.3759C15.5689 15.9497 15.3385 15.0283 15.7648 14.318C17.7647 10.9847 21.8835 10.9027 24.0245 13.0436C26.1155 15.1347 25.8797 18.4079 23.9728 20.1415C23.1573 20.8829 22.2459 21.2298 21.5074 21.3906V21.988C21.5074 22.8164 20.8358 23.488 20.0074 23.488C19.179 23.488 18.5074 22.8164 18.5074 21.988V20.5733C18.5074 19.365 19.504 18.5888 20.4532 18.5195C20.8814 18.4883 21.4818 18.3517 21.9548 17.9216C22.6096 17.3264 22.7684 16.0302 21.9031 15.1649Z" fill="#D9DBE0"/>
<path fill-rule="evenodd" clip-rule="evenodd" d="M20.0078 24.4062C20.8362 24.4062 21.5078 25.0778 21.5078 25.9062V26.0048C21.5078 26.8332 20.8362 27.5048 20.0078 27.5048C19.1794 27.5048 18.5078 26.8332 18.5078 26.0048V25.9062C18.5078 25.0778 19.1794 24.4062 20.0078 24.4062Z" fill="#D9DBE0"/>
</svg>
