<svg width="40" height="40" viewBox="0 0 40 40" fill="none" xmlns="http://www.w3.org/2000/svg">
<path fill-rule="evenodd" clip-rule="evenodd" d="M20 5.5C11.9919 5.5 5.5 11.9919 5.5 20C5.5 28.0081 11.9919 34.5 20 34.5C28.0081 34.5 34.5 28.0081 34.5 20C34.5 11.9919 28.0081 5.5 20 5.5ZM2.5 20C2.5 10.335 10.335 2.5 20 2.5C29.665 2.5 37.5 10.335 37.5 20C37.5 29.665 29.665 37.5 20 37.5C10.335 37.5 2.5 29.665 2.5 20Z" fill="#8D9299"/>
<path fill-rule="evenodd" clip-rule="evenodd" d="M14 20.5C14.8284 20.5 15.5 21.1716 15.5 22C15.5 24.4853 17.5147 26.5 20 26.5C22.4853 26.5 24.5 24.4853 24.5 22C24.5 21.1716 25.1716 20.5 26 20.5C26.8284 20.5 27.5 21.1716 27.5 22C27.5 26.1421 24.1421 29.5 20 29.5C15.8579 29.5 12.5 26.1421 12.5 22C12.5 21.1716 13.1716 20.5 14 20.5Z" fill="#8D9299"/>
<path d="M17 16C17 17.1046 16.1046 18 15 18C13.8954 18 13 17.1046 13 16C13 14.8954 13.8954 14 15 14C16.1046 14 17 14.8954 17 16Z" fill="#8D9299"/>
<path d="M27 16C27 17.1046 26.1046 18 25 18C23.8954 18 23 17.1046 23 16C23 14.8954 23.8954 14 25 14C26.1046 14 27 14.8954 27 16Z" fill="#8D9299"/>
<path fill-rule="evenodd" clip-rule="evenodd" d="M20 15.5C20.8284 15.5 21.5 16.1716 21.5 17V20.5C21.5 21.3284 20.8284 22 20 22C19.1716 22 18.5 21.3284 18.5 20.5V17C18.5 16.1716 19.1716 15.5 20 15.5Z" fill="#8D9299"/>
</svg>
