<svg width="40" height="40" viewBox="0 0 40 40" fill="none" xmlns="http://www.w3.org/2000/svg">
<path fill-rule="evenodd" clip-rule="evenodd" d="M20 6.5C20.8284 6.5 21.5 7.17157 21.5 8L21.5 28.1201L28.8901 19.991C29.4474 19.378 30.396 19.3328 31.009 19.8901C31.622 20.4473 31.6672 21.396 31.1099 22.009L21.1099 33.009C20.8256 33.3217 20.4226 33.5 20 33.5C19.5774 33.5 19.1744 33.3217 18.8901 33.009L8.8901 22.009C8.33284 21.396 8.37801 20.4474 8.991 19.8901C9.60399 19.3328 10.5527 19.378 11.1099 19.991L18.5 28.1201L18.5 8C18.5 7.17157 19.1716 6.5 20 6.5Z" fill="#2E6FF2"/>
</svg>
