<svg width="48" height="48" viewBox="0 0 48 48" fill="none" xmlns="http://www.w3.org/2000/svg">
<g filter="url(#filter0_d_126306_3671)">
<circle cx="22" cy="22" r="18" fill="#2E6FF2"/>
<path d="M17.0834 15.9167C16.7612 15.5945 16.2389 15.5945 15.9167 15.9167C15.5945 16.2389 15.5945 16.7612 15.9167 17.0834L20.8333 22L15.9167 26.9167C15.5945 27.2389 15.5945 27.7612 15.9167 28.0834C16.2389 28.4056 16.7612 28.4056 17.0834 28.0834L22 23.1668L26.8061 27.9729C27.1283 28.295 27.6507 28.295 27.9729 27.9729C28.295 27.6507 28.295 27.1283 27.9729 26.8061L23.1668 22L27.9729 17.194C28.295 16.8718 28.295 16.3494 27.9729 16.0272C27.6507 15.7051 27.1283 15.7051 26.8061 16.0272L22 20.8333L17.0834 15.9167Z" fill="white"/>
</g>
<defs>
<filter id="filter0_d_126306_3671" x="0" y="0" width="48" height="48" filterUnits="userSpaceOnUse" color-interpolation-filters="sRGB">
<feFlood flood-opacity="0" result="BackgroundImageFix"/>
<feColorMatrix in="SourceAlpha" type="matrix" values="0 0 0 0 0 0 0 0 0 0 0 0 0 0 0 0 0 0 127 0" result="hardAlpha"/>
<feOffset dx="2" dy="2"/>
<feGaussianBlur stdDeviation="3"/>
<feColorMatrix type="matrix" values="0 0 0 0 0 0 0 0 0 0 0 0 0 0 0 0 0 0 0.1 0"/>
<feBlend mode="normal" in2="BackgroundImageFix" result="effect1_dropShadow_126306_3671"/>
<feBlend mode="normal" in="SourceGraphic" in2="effect1_dropShadow_126306_3671" result="shape"/>
</filter>
</defs>
</svg>
