<svg width="40" height="40" viewBox="0 0 40 40" fill="none" xmlns="http://www.w3.org/2000/svg">
<path fill-rule="evenodd" clip-rule="evenodd" d="M20 5.5C11.9919 5.5 5.5 11.9919 5.5 20C5.5 28.0081 11.9919 34.5 20 34.5C28.0081 34.5 34.5 28.0081 34.5 20C34.5 11.9919 28.0081 5.5 20 5.5ZM2.5 20C2.5 10.335 10.335 2.5 20 2.5C29.665 2.5 37.5 10.335 37.5 20C37.5 29.665 29.665 37.5 20 37.5C10.335 37.5 2.5 29.665 2.5 20Z" fill="#8D9299"/>
<path fill-rule="evenodd" clip-rule="evenodd" d="M20 10.5C20.8284 10.5 21.5 11.1716 21.5 12V20C21.5 20.8284 20.8284 21.5 20 21.5C19.1716 21.5 18.5 20.8284 18.5 20V12C18.5 11.1716 19.1716 10.5 20 10.5Z" fill="#8D9299"/>
<path fill-rule="evenodd" clip-rule="evenodd" d="M18.7012 19.2498C19.1154 18.5324 20.0328 18.2865 20.7502 18.7008L27.6784 22.7008C28.3959 23.115 28.6417 24.0324 28.2275 24.7498C27.8132 25.4672 26.8959 25.713 26.1784 25.2988L19.2502 21.2988C18.5328 20.8846 18.287 19.9672 18.7012 19.2498Z" fill="#8D9299"/>
</svg>
