<svg width="40" height="40" viewBox="0 0 40 40" fill="none" xmlns="http://www.w3.org/2000/svg">
<path d="M20.4305 6.74564C20.3405 6.5934 20.1768 6.5 20 6.5C19.8232 6.5 19.6595 6.5934 19.5696 6.74564L12.8265 18.157L6.25864 14.1875C6.0936 14.0877 5.88592 14.0918 5.72489 14.1979C5.56387 14.304 5.47822 14.4932 5.50478 14.6842L7.50478 29.0689C7.53914 29.316 7.75048 29.5 8.00001 29.5H32C32.2495 29.5 32.4609 29.316 32.4952 29.0689L34.4952 14.6842C34.5218 14.4932 34.4362 14.304 34.2751 14.1979C34.1141 14.0918 33.9064 14.0877 33.7414 14.1875L27.1736 18.157L20.4305 6.74564Z" fill="#FFC533"/>
</svg>
