<svg width="40" height="40" viewBox="0 0 40 40" fill="none" xmlns="http://www.w3.org/2000/svg">
<path fill-rule="evenodd" clip-rule="evenodd" d="M27 7.5C25.6193 7.5 24.5 8.61931 24.5 10C24.5 11.3807 25.6193 12.5 27 12.5C28.3807 12.5 29.5 11.3807 29.5 10C29.5 8.61931 28.3807 7.5 27 7.5ZM21.707 8.50003C22.36 6.19153 24.4824 4.5 27 4.5C29.5176 4.5 31.64 6.19153 32.293 8.50003H36C36.8284 8.50003 37.5 9.17161 37.5 10C37.5 10.8285 36.8284 11.5 36 11.5H32.293C31.64 13.8085 29.5175 15.5 27 15.5C24.4825 15.5 22.36 13.8085 21.707 11.5L4 11.5C3.17157 11.5 2.5 10.8285 2.5 10C2.5 9.1716 3.17157 8.50003 4 8.50003L21.707 8.50003ZM11 17.5C9.61929 17.5 8.5 18.6193 8.5 20C8.5 21.3807 9.61929 22.5 11 22.5C12.3807 22.5 13.5 21.3807 13.5 20C13.5 18.6193 12.3807 17.5 11 17.5ZM5.70704 18.5C6.35998 16.1915 8.48246 14.5 11 14.5C13.5175 14.5 15.64 16.1915 16.293 18.5H36C36.8284 18.5 37.5 19.1715 37.5 20C37.5 20.8284 36.8284 21.5 36 21.5H16.293C15.64 23.8085 13.5176 25.5 11 25.5C8.48243 25.5 6.35994 23.8085 5.70702 21.5L4 21.5C3.17157 21.5 2.5 20.8284 2.5 20C2.5 19.1715 3.17157 18.5 4 18.5L5.70704 18.5ZM27 27.5C25.6193 27.5 24.5 28.6193 24.5 30C24.5 31.3807 25.6193 32.5 27 32.5C28.3807 32.5 29.5 31.3807 29.5 30C29.5 28.6193 28.3807 27.5 27 27.5ZM21.707 28.5C22.36 26.1915 24.4824 24.5 27 24.5C29.5176 24.5 31.64 26.1915 32.293 28.5H36C36.8284 28.5 37.5 29.1716 37.5 30C37.5 30.8285 36.8284 31.5 36 31.5H32.293C31.64 33.8085 29.5175 35.5 27 35.5C24.4825 35.5 22.36 33.8085 21.707 31.5L4 31.5C3.17157 31.5 2.5 30.8285 2.5 30C2.5 29.1716 3.17157 28.5 4 28.5L21.707 28.5Z" fill="#47494D"/>
</svg>
