<svg width="40" height="40" viewBox="0 0 40 40" fill="none" xmlns="http://www.w3.org/2000/svg">
<path fill-rule="evenodd" clip-rule="evenodd" d="M17.7649 6.11408C18.6867 4.27316 21.314 4.27318 22.2358 6.11408L25.9345 13.5009L34.1865 14.6899C36.2474 14.9869 37.0634 17.5256 35.5614 18.9677L29.6149 24.6774L31.0203 32.7549C31.3748 34.7925 29.2428 36.3548 27.4067 35.4029L20.0003 31.5633L12.594 35.4029C10.7579 36.3548 8.62587 34.7926 8.98038 32.7549L10.3857 24.6774L4.43921 18.9677C2.93729 17.5256 3.75326 14.9869 5.81416 14.6899L14.0662 13.5009L17.7649 6.11408ZM20.0003 8.35015L16.6317 15.0778C16.2651 15.81 15.5632 16.3162 14.7528 16.4329L7.25589 17.5132L12.6554 22.6977C13.2553 23.2736 13.5295 24.1102 13.3869 24.9295L12.1089 32.2752L18.8497 28.7806C19.5712 28.4066 20.4295 28.4066 21.151 28.7806L27.8918 32.2752L26.6137 24.9295C26.4712 24.1102 26.7454 23.2736 27.3452 22.6977L32.7448 17.5132L25.2479 16.4329C24.4375 16.3162 23.7356 15.81 23.369 15.0778L20.0003 8.35015Z" fill="#2E6FF2"/>
</svg>
