<svg width="40" height="40" viewBox="0 0 40 40" fill="none" xmlns="http://www.w3.org/2000/svg">
<path fill-rule="evenodd" clip-rule="evenodd" d="M3.5 7C3.5 5.067 5.067 3.5 7 3.5H33C34.933 3.5 36.5 5.067 36.5 7V33C36.5 34.933 34.933 36.5 33 36.5H7C5.067 36.5 3.5 34.933 3.5 33V7ZM7 6.5C6.72386 6.5 6.5 6.72386 6.5 7V33C6.5 33.2761 6.72386 33.5 7 33.5H33C33.2761 33.5 33.5 33.2761 33.5 33V7C33.5 6.72386 33.2761 6.5 33 6.5H7Z" fill="#D9DBE0"/>
<path fill-rule="evenodd" clip-rule="evenodd" d="M26.9241 14.8185C27.5766 15.3288 27.6919 16.2716 27.1816 16.9241L20.1431 25.9241C19.8803 26.2601 19.4869 26.4684 19.0612 26.4967C18.6356 26.5251 18.218 26.3709 17.913 26.0727L12.9514 21.2224C12.359 20.6433 12.3483 19.6936 12.9274 19.1012C13.5065 18.5088 14.4562 18.4981 15.0486 19.0772L18.8121 22.7563L24.8184 15.076C25.3288 14.4234 26.2715 14.3081 26.9241 14.8185Z" fill="#D9DBE0"/>
</svg>
