<svg width="50" height="50" viewBox="0 0 50 50" fill="none" xmlns="http://www.w3.org/2000/svg">
<circle cx="25" cy="25" r="25" fill="#8D9299"/>
<path d="M25.0001 14.2C25.3529 14.2 25.6702 14.3523 25.8898 14.5948L33.888 23.3927C34.3338 23.8831 34.2977 24.6421 33.8073 25.0879C33.3169 25.5337 32.5579 25.4975 32.1121 25.0072L26.2 18.5039V34.6C26.2 35.2627 25.6628 35.8 25 35.8C24.3373 35.8 23.8 35.2627 23.8 34.6V18.5039L17.888 25.0072C17.4422 25.4975 16.6832 25.5337 16.1928 25.0879C15.7025 24.6421 15.6663 23.8831 16.1121 23.3927L24.1079 14.5974C24.3275 14.3534 24.6459 14.2 25.0001 14.2C25.0001 14.2 25.0001 14.2 25.0001 14.2Z" fill="white"/>
</svg>
