<svg width="40" height="40" viewBox="0 0 40 40" fill="none" xmlns="http://www.w3.org/2000/svg">
<path fill-rule="evenodd" clip-rule="evenodd" d="M10.5 12C10.5 6.75329 14.7533 2.5 20 2.5C25.2467 2.5 29.5 6.75329 29.5 12V12.65C32.9234 13.3449 35.5 16.3716 35.5 20V30C35.5 34.1421 32.1421 37.5 28 37.5H12C7.85787 37.5 4.5 34.1421 4.5 30V20C4.5 16.3716 7.07664 13.3449 10.5 12.65V12ZM13.5 12.5H26.5V12C26.5 8.41015 23.5899 5.5 20 5.5C16.4101 5.5 13.5 8.41015 13.5 12V12.5ZM12 15.5C9.51472 15.5 7.5 17.5147 7.5 20V30C7.5 32.4853 9.51472 34.5 12 34.5H28C30.4853 34.5 32.5 32.4853 32.5 30V20C32.5 17.5147 30.4853 15.5 28 15.5H12ZM20 22.5C18.6193 22.5 17.5 23.6193 17.5 25C17.5 26.3807 18.6193 27.5 20 27.5C21.3807 27.5 22.5 26.3807 22.5 25C22.5 23.6193 21.3807 22.5 20 22.5ZM14.5 25C14.5 21.9624 16.9624 19.5 20 19.5C23.0376 19.5 25.5 21.9624 25.5 25C25.5 28.0376 23.0376 30.5 20 30.5C16.9624 30.5 14.5 28.0376 14.5 25Z" fill="#8D9299"/>
</svg>
