<svg width="40" height="40" viewBox="0 0 40 40" fill="none" xmlns="http://www.w3.org/2000/svg">
<path fill-rule="evenodd" clip-rule="evenodd" d="M20 17.5C18.6193 17.5 17.5 18.6193 17.5 20C17.5 21.3807 18.6193 22.5 20 22.5C21.3807 22.5 22.5 21.3807 22.5 20C22.5 18.6193 21.3807 17.5 20 17.5ZM14.5 20C14.5 16.9624 16.9624 14.5 20 14.5C23.0376 14.5 25.5 16.9624 25.5 20C25.5 23.0376 23.0376 25.5 20 25.5C16.9624 25.5 14.5 23.0376 14.5 20Z" fill="#8D9299"/>
<path d="M19.9949 37.9897C17.9589 37.9897 16.2314 36.6739 15.6864 34.7105L15.4396 33.8367C15.3265 33.4255 15.0283 33.0862 14.6375 32.932C14.2468 32.7676 13.8046 32.7984 13.4242 33.004L12.6221 33.4666C10.8535 34.4637 8.69409 34.1759 7.2545 32.7367C5.81491 31.2975 5.52699 29.1491 6.52442 27.3809L6.98715 26.5688C7.20308 26.1987 7.22365 25.7567 7.05913 25.3558C6.8946 24.9549 6.56555 24.6671 6.15424 24.554L5.26992 24.3073C3.3162 23.7624 2 22.0354 2 20C2 17.9646 3.3162 16.2376 5.28021 15.6927L6.16452 15.446C6.57584 15.333 6.90488 15.0348 7.06941 14.6442C7.23393 14.2433 7.20308 13.8115 6.99743 13.4312L6.5347 12.6294C5.53727 10.8612 5.82519 8.70246 7.26478 7.26328C8.70437 5.8241 10.8535 5.53627 12.6221 6.53341L13.4344 6.996C13.8046 7.21188 14.2468 7.23244 14.6478 7.06796C15.0488 6.90348 15.3368 6.57453 15.4499 6.16334L15.6967 5.27927C16.2416 3.3261 17.9692 2 20.0051 2C22.0411 2 23.7686 3.31582 24.3136 5.27927L24.5604 6.16334C24.6735 6.57453 24.9717 6.90348 25.3625 7.06796C25.7635 7.23244 26.2057 7.2016 26.5758 6.996L27.3882 6.53341C29.1568 5.53627 31.3162 5.8241 32.7455 7.26328C34.1851 8.70246 34.473 10.8509 33.4756 12.6191L33.0129 13.4312C32.7969 13.8013 32.7764 14.2433 32.9409 14.6442C33.1054 15.0451 33.4344 15.333 33.8458 15.446L34.7301 15.6927C36.6838 16.2376 38 17.9646 38 20C38 22.0354 36.6838 23.7624 34.7198 24.3073L33.8355 24.554C33.4242 24.6671 33.0951 24.9652 32.9306 25.3558C32.7661 25.7464 32.7969 26.1885 33.0026 26.5688L33.4653 27.3809C34.4627 29.1491 34.1748 31.3078 32.7352 32.7367C31.2956 34.1759 29.1465 34.4637 27.3779 33.4666L26.5656 33.004C26.1954 32.7984 25.7532 32.7676 25.3522 32.932C24.9512 33.0965 24.6632 33.4255 24.5501 33.8367L24.3033 34.7207C23.7584 36.6842 22.0308 38 19.9949 38V37.9897ZM14.1131 29.735C14.6889 29.735 15.2751 29.8481 15.8303 30.0742C17.1054 30.6088 18.0514 31.6779 18.4216 33.004L18.6684 33.8881C18.9254 34.8338 19.7584 34.9058 20.0051 34.9058C20.2519 34.9058 21.0745 34.8338 21.3419 33.8881L21.5887 33.004C21.9589 31.6676 22.9049 30.5985 24.1902 30.064C25.4653 29.5294 26.8946 29.6219 28.0977 30.3004L28.91 30.763C29.7532 31.2359 30.3907 30.7116 30.5656 30.5368C30.7404 30.3621 31.2751 29.7247 30.7918 28.8818L30.329 28.0697C29.6504 26.8669 29.5578 25.438 30.0925 24.1633C30.6272 22.8784 31.6967 21.9326 33.0334 21.5728L33.9177 21.3261C34.8638 21.0691 34.9357 20.2364 34.9357 19.9897C34.9357 19.743 34.8638 18.9206 33.9177 18.6533L33.0334 18.4066C31.6967 18.0366 30.6272 17.0908 30.1028 15.8161C29.5681 14.5414 29.6607 13.1125 30.3393 11.9098L30.8021 11.0977C31.2853 10.2547 30.7506 9.61736 30.5758 9.44261C30.401 9.26785 29.7635 8.7333 28.9203 9.21645L28.108 9.67904C26.9049 10.3678 25.4756 10.45 24.2005 9.91548C22.9152 9.38093 21.9692 8.31182 21.6093 6.98572L21.3625 6.10166C21.1054 5.15591 20.2725 5.08395 20.0257 5.08395C19.7789 5.08395 18.9563 5.15591 18.6889 6.10166L18.4422 6.98572C18.072 8.3221 17.126 9.39121 15.8509 9.91548C14.5758 10.45 13.1465 10.3575 11.9434 9.67904L11.1311 9.21645C10.2879 8.7333 9.65039 9.26785 9.47558 9.44261C9.30077 9.61736 8.76607 10.2547 9.24936 11.0977L9.71208 11.8995C10.3907 13.1125 10.4833 14.5311 9.94859 15.8161C9.41388 17.0908 8.34447 18.0366 7.01799 18.4066L6.13368 18.6533C5.18766 18.9103 5.11568 19.743 5.11568 19.9897C5.11568 20.2364 5.18766 21.0588 6.13368 21.3261L7.01799 21.5728C8.35476 21.9429 9.42416 22.8886 9.94859 24.1736C10.4833 25.4483 10.3907 26.8772 9.71208 28.08L9.24936 28.8921C8.76607 29.735 9.30077 30.3724 9.47558 30.5471C9.65039 30.7219 10.2879 31.2564 11.1311 30.7733L11.9332 30.3107C12.6221 29.92 13.3728 29.7247 14.1337 29.7247L14.1131 29.735Z" fill="#8D9299"/>
</svg>
