<svg width="40" height="40" viewBox="0 0 40 40" fill="none" xmlns="http://www.w3.org/2000/svg">
<path fill-rule="evenodd" clip-rule="evenodd" d="M2.5 12C2.5 6.75329 6.75329 2.5 12 2.5H28C33.2467 2.5 37.5 6.75329 37.5 12V28C37.5 33.2467 33.2467 37.5 28 37.5H12C6.75329 37.5 2.5 33.2467 2.5 28V12ZM12 5.5C8.41015 5.5 5.5 8.41015 5.5 12V28C5.5 31.5899 8.41015 34.5 12 34.5H28C31.5899 34.5 34.5 31.5899 34.5 28V12C34.5 8.41015 31.5899 5.5 28 5.5H12Z" fill="#8D9299"/>
<path fill-rule="evenodd" clip-rule="evenodd" d="M13.5 11.5C12.3954 11.5 11.5 12.3954 11.5 13.5C11.5 14.6046 12.3954 15.5 13.5 15.5C14.6046 15.5 15.5 14.6046 15.5 13.5C15.5 12.3954 14.6046 11.5 13.5 11.5ZM8.5 13.5C8.5 10.7386 10.7386 8.5 13.5 8.5C16.2614 8.5 18.5 10.7386 18.5 13.5C18.5 16.2614 16.2614 18.5 13.5 18.5C10.7386 18.5 8.5 16.2614 8.5 13.5Z" fill="#8D9299"/>
<path fill-rule="evenodd" clip-rule="evenodd" d="M30.0332 20.9427C29.0164 19.6717 27.0755 19.6958 26.0906 20.9917L21.9033 26.5013C20.1828 28.7651 17.0205 29.3443 14.6094 27.8373L12.4035 26.4586C11.4163 25.8417 10.1339 25.9877 9.31072 26.8109L5.06077 31.0608L2.93945 28.9395L7.1894 24.6896C9.00038 22.8786 11.8217 22.5573 13.9935 23.9147L16.1994 25.2933C17.2954 25.9783 18.7328 25.715 19.5148 24.6861L23.7021 19.1764C25.8688 16.3255 30.1388 16.2724 32.3758 19.0686L37.1714 25.0631L34.8288 26.9372L30.0332 20.9427Z" fill="#8D9299"/>
</svg>
