<svg width="40" height="40" viewBox="0 0 40 40" fill="none" xmlns="http://www.w3.org/2000/svg">
<path fill-rule="evenodd" clip-rule="evenodd" d="M20.0004 9.5C13.6491 9.5 8.50036 14.6487 8.50036 21L8.50037 26.446C8.50037 27.0804 8.32797 27.7028 8.00159 28.2468L7.104 29.7428C6.90405 30.076 7.1441 30.5 7.53275 30.5H32.468C32.8566 30.5 33.0967 30.076 32.8967 29.7428L31.9991 28.2468C31.6728 27.7028 31.5004 27.0804 31.5004 26.446L31.5004 21C31.5004 14.6487 26.3516 9.5 20.0004 9.5ZM5.50036 21C5.50036 12.9919 11.9922 6.5 20.0004 6.5C28.0085 6.5 34.5004 12.9919 34.5004 21L34.5004 26.446C34.5004 26.5367 34.525 26.6256 34.5716 26.7033L35.4692 28.1993C36.8689 30.5321 35.1885 33.5 32.468 33.5H7.53275C4.81222 33.5 3.13182 30.5321 4.53152 28.1993L5.42911 26.7033C5.47574 26.6256 5.50037 26.5367 5.50037 26.446L5.50036 21Z" fill="#121314"/>
<path fill-rule="evenodd" clip-rule="evenodd" d="M13.5 36C13.5 35.1716 14.1716 34.5 15 34.5H25C25.8284 34.5 26.5 35.1716 26.5 36C26.5 36.8284 25.8284 37.5 25 37.5H15C14.1716 37.5 13.5 36.8284 13.5 36Z" fill="#121314"/>
<path d="M22 6C22 7.10457 21.1046 8 20 8C18.8954 8 18 7.10457 18 6C18 4.89543 18.8954 4 20 4C21.1046 4 22 4.89543 22 6Z" fill="#121314"/>
<path fill-rule="evenodd" clip-rule="evenodd" d="M20 5C19.4477 5 19 5.44772 19 6C19 6.55228 19.4477 7 20 7C20.5523 7 21 6.55228 21 6C21 5.44772 20.5523 5 20 5ZM17 6C17 4.34315 18.3431 3 20 3C21.6569 3 23 4.34315 23 6C23 7.65685 21.6569 9 20 9C18.3431 9 17 7.65685 17 6Z" fill="#121314"/>
</svg>
