<svg width="40" height="40" viewBox="0 0 40 40" fill="none" xmlns="http://www.w3.org/2000/svg">
<path fill-rule="evenodd" clip-rule="evenodd" d="M2.5 20C2.5 19.1716 3.17157 18.5 4 18.5L36 18.5C36.8284 18.5 37.5 19.1716 37.5 20C37.5 20.8284 36.8284 21.5 36 21.5L4 21.5C3.17157 21.5 2.5 20.8284 2.5 20Z" fill="#2E6FF2"/>
<path fill-rule="evenodd" clip-rule="evenodd" d="M2.5 10C2.5 9.17157 3.17157 8.5 4 8.5L36 8.5C36.8284 8.5 37.5 9.17157 37.5 10C37.5 10.8284 36.8284 11.5 36 11.5L4 11.5C3.17157 11.5 2.5 10.8284 2.5 10Z" fill="#2E6FF2"/>
<path fill-rule="evenodd" clip-rule="evenodd" d="M2.5 30C2.5 29.1716 3.17157 28.5 4 28.5L36 28.5C36.8284 28.5 37.5 29.1716 37.5 30C37.5 30.8284 36.8284 31.5 36 31.5L4 31.5C3.17157 31.5 2.5 30.8284 2.5 30Z" fill="#2E6FF2"/>
</svg>
