<svg width="40" height="40" viewBox="0 0 40 40" fill="none" xmlns="http://www.w3.org/2000/svg">
<path fill-rule="evenodd" clip-rule="evenodd" d="M20 5.5C11.9919 5.5 5.5 11.9919 5.5 20C5.5 28.0081 11.9919 34.5 20 34.5C28.0081 34.5 34.5 28.0081 34.5 20C34.5 11.9919 28.0081 5.5 20 5.5ZM2.5 20C2.5 10.335 10.335 2.5 20 2.5C29.665 2.5 37.5 10.335 37.5 20C37.5 29.665 29.665 37.5 20 37.5C10.335 37.5 2.5 29.665 2.5 20Z" fill="#2E6FF2"/>
<path fill-rule="evenodd" clip-rule="evenodd" d="M20 12.5C20.8284 12.5 21.5 13.1716 21.5 14V21.5C21.5 22.3284 20.8284 23 20 23C19.1716 23 18.5 22.3284 18.5 21.5V14C18.5 13.1716 19.1716 12.5 20 12.5Z" fill="#2E6FF2"/>
<path fill-rule="evenodd" clip-rule="evenodd" d="M20 24.5C20.8284 24.5 21.5 25.1716 21.5 26V26.1C21.5 26.9284 20.8284 27.6 20 27.6C19.1716 27.6 18.5 26.9284 18.5 26.1V26C18.5 25.1716 19.1716 24.5 20 24.5Z" fill="#2E6FF2"/>
</svg>
