<svg width="40" height="40" viewBox="0 0 40 40" fill="none" xmlns="http://www.w3.org/2000/svg">
<path fill-rule="evenodd" clip-rule="evenodd" d="M14.5 15.5C12.2909 15.5 10.5 17.2909 10.5 19.5C10.5 21.7091 12.2909 23.5 14.5 23.5C16.7091 23.5 18.5 21.7091 18.5 19.5C18.5 17.2909 16.7091 15.5 14.5 15.5ZM7.5 19.5C7.5 15.634 10.634 12.5 14.5 12.5C18.366 12.5 21.5 15.634 21.5 19.5C21.5 23.366 18.366 26.5 14.5 26.5C10.634 26.5 7.5 23.366 7.5 19.5Z" fill="#121314"/>
<path fill-rule="evenodd" clip-rule="evenodd" d="M25.5 5.5C23.2909 5.5 21.5 7.29086 21.5 9.5C21.5 11.7091 23.2909 13.5 25.5 13.5C27.7091 13.5 29.5 11.7091 29.5 9.5C29.5 7.29086 27.7091 5.5 25.5 5.5ZM18.5 9.5C18.5 5.63401 21.634 2.5 25.5 2.5C29.366 2.5 32.5 5.63401 32.5 9.5C32.5 13.366 29.366 16.5 25.5 16.5C21.634 16.5 18.5 13.366 18.5 9.5Z" fill="#121314"/>
<path fill-rule="evenodd" clip-rule="evenodd" d="M14.5 26.5C9.52944 26.5 5.5 30.5294 5.5 35.5V36C5.5 36.8284 4.82843 37.5 4 37.5C3.17157 37.5 2.5 36.8284 2.5 36V35.5C2.5 28.8726 7.87258 23.5 14.5 23.5C21.1274 23.5 26.5 28.8726 26.5 35.5V36C26.5 36.8284 25.8284 37.5 25 37.5C24.1716 37.5 23.5 36.8284 23.5 36V35.5C23.5 30.5294 19.4706 26.5 14.5 26.5Z" fill="#121314"/>
<path fill-rule="evenodd" clip-rule="evenodd" d="M24 15C24 14.1716 24.6716 13.5 25.5 13.5C32.1274 13.5 37.5 18.8726 37.5 25.5C37.5 26.3284 36.8284 27 36 27C35.1716 27 34.5 26.3284 34.5 25.5C34.5 20.5294 30.4706 16.5 25.5 16.5C24.6716 16.5 24 15.8284 24 15Z" fill="#121314"/>
</svg>
