<svg width="24" height="24" viewBox="0 0 24 24" fill="none" xmlns="http://www.w3.org/2000/svg">
<path d="M15.5 3.50659C18.2299 1.67665 19.4102 2.0271 19.4102 2.0271C19.9237 3.22533 19.9558 4.57526 19.5 5.79663C20.4626 6.80777 20.9997 8.15055 21 9.54663C21 15.0063 17.7004 16.1966 14.5605 16.5466C14.8934 16.89 15.1495 17.3008 15.3115 17.7507C15.4735 18.2007 15.5375 18.6802 15.5 19.157L8.5 23.0271V21.7009C8.22876 21.7008 7.94946 21.6741 7.6709 21.6003C6.77657 21.3634 6.02696 20.7119 5.55371 19.5291C5.19394 18.6296 4.77862 18.1503 4.35938 17.8826C3.93652 17.6127 3.42036 17.4998 2.75 17.4998C2.33579 17.4998 2 17.164 2 16.7498C2.00018 16.3357 2.3359 15.9998 2.75 15.9998C3.57964 15.9998 4.41387 16.1378 5.16602 16.6179C5.9216 17.1002 6.50619 17.8712 6.94629 18.9714C7.27305 19.7883 7.69078 20.0537 8.05469 20.1501C8.19439 20.1871 8.34331 20.2018 8.5 20.2019V19.157C8.46681 18.685 8.53336 18.2109 8.69531 17.7664C8.85727 17.322 9.11152 16.9168 9.44043 16.5769C6.30043 16.1869 3.00001 14.9969 3 9.5769C2.99252 8.17037 3.53013 6.81533 4.5 5.79663C4.04427 4.57529 4.07636 3.2253 4.58984 2.0271C4.58984 2.0271 5.77013 1.67673 8.5 3.50659C10.7919 2.88543 13.2081 2.88545 15.5 3.50659Z" fill="#47494D"/>
</svg>
