<svg width="24" height="24" viewBox="0 0 24 24" fill="none" xmlns="http://www.w3.org/2000/svg">
<path d="M20.9999 12.207C20.9999 11.6016 20.9463 11.0269 20.8543 10.4675H12.1953V13.9235H17.1532C16.9309 15.0576 16.2796 16.0154 15.3141 16.6668V18.9656H18.2719C20.0037 17.3641 20.9999 15.0039 20.9999 12.207Z" fill="#4285F4"/>
<path d="M12.1954 21.1955C14.6782 21.1955 16.7548 20.3679 18.272 18.9656L15.3142 16.6668C14.4866 17.2185 13.4368 17.5556 12.1954 17.5556C9.79695 17.5556 7.7663 15.9388 7.03833 13.7549H3.98853V16.1227C5.4981 19.1265 8.60155 21.1955 12.1954 21.1955Z" fill="#34A853"/>
<path d="M7.03831 13.7548C6.84674 13.2031 6.74712 12.6131 6.74712 12C6.74712 11.387 6.8544 10.797 7.03831 10.2453V7.87744H3.9885C3.36015 9.11882 3 10.5135 3 12C3 13.4866 3.36015 14.8813 3.9885 16.1226L7.03831 13.7548Z" fill="#FBBC05"/>
<path d="M12.1954 6.44453C13.5517 6.44453 14.7625 6.91197 15.7203 7.82384L18.341 5.20315C16.7548 3.71657 14.6782 2.80469 12.1954 2.80469C8.60155 2.80469 5.4981 4.87365 3.98853 7.87748L7.03833 10.2453C7.7663 8.06139 9.79695 6.44453 12.1954 6.44453Z" fill="#EA4335"/>
</svg>
