<svg width="40" height="40" viewBox="0 0 40 40" fill="none" xmlns="http://www.w3.org/2000/svg">
<path d="M28.6677 12.5962H11.3317C10.2812 12.5962 9.42969 13.4477 9.42969 14.4982V22.9702C9.42969 24.0206 10.2812 24.8722 11.3317 24.8722H28.6677C29.7181 24.8722 30.5697 24.0206 30.5697 22.9702V14.4982C30.5697 13.4477 29.7181 12.5962 28.6677 12.5962Z" fill="#FFC533"/>
<path d="M29.1236 10.3701H10.8756C8.8156 10.3701 7.1416 12.0461 7.1416 14.1041V23.3621C7.1416 25.4221 8.8176 27.0961 10.8756 27.0961H17.9996V28.2481H13.4936C12.3856 28.2481 11.4616 29.0521 11.2736 30.1061H9.5136C9.2936 30.1061 9.1136 30.2861 9.1136 30.5061C9.1136 30.7261 9.2936 30.9061 9.5136 30.9061H30.4896C30.7096 30.9061 30.8896 30.7261 30.8896 30.5061C30.8896 30.2861 30.7096 30.1061 30.4896 30.1061H28.7296C28.5396 29.0521 27.6176 28.2481 26.5096 28.2481H22.0036V27.0961H29.1276C31.1856 27.0961 32.8616 25.4201 32.8616 23.3621V14.1041C32.8616 12.0441 31.1856 10.3701 29.1276 10.3701H29.1236ZM27.9096 30.1081H12.0896C12.2636 29.4981 12.8276 29.0501 13.4916 29.0501H26.5056C27.1716 29.0501 27.7336 29.4981 27.9076 30.1081H27.9096ZM21.1996 28.2501H18.7976V27.0981H21.1996V28.2501ZM32.0576 23.3641C32.0576 24.9821 30.7416 26.2981 29.1236 26.2981H10.8756C9.2576 26.2981 7.9416 24.9821 7.9416 23.3641V14.1061C7.9416 12.4881 9.2576 11.1721 10.8756 11.1721H29.1256C30.7436 11.1721 32.0596 12.4881 32.0596 14.1061V23.3641H32.0576Z" fill="#47494D"/>
<path d="M17.8116 17.8361C17.9236 17.7801 17.9876 17.7021 18.0016 17.6001C18.0156 17.5001 18.0016 17.4021 17.9596 17.3081C17.9136 17.2041 17.8436 17.1361 17.7556 17.1041C17.6676 17.0721 17.5636 17.0861 17.4456 17.1461L14.9336 18.4621C14.8496 18.5081 14.7796 18.5521 14.7256 18.5921C14.6716 18.6321 14.6296 18.6721 14.5996 18.7161C14.5696 18.7581 14.5476 18.8041 14.5356 18.8541C14.5236 18.9041 14.5176 18.9561 14.5176 19.0121C14.5176 19.1241 14.5436 19.2201 14.5956 19.3001C14.6476 19.3801 14.7596 19.4641 14.9336 19.5541L17.4376 20.8701C17.5556 20.9321 17.6596 20.9461 17.7516 20.9121C17.8436 20.8801 17.9116 20.8121 17.9596 20.7081C18.0016 20.6101 18.0156 20.5101 18.0016 20.4101C17.9876 20.3101 17.9236 20.2301 17.8116 20.1741L15.5456 19.0201V18.9781L17.8116 17.8381V17.8361Z" fill="#47494D"/>
<path d="M20.8838 16.45C20.7918 16.422 20.7018 16.422 20.6158 16.448C20.5218 16.476 20.4558 16.546 20.4178 16.656L18.8898 21.152C18.8558 21.254 18.8638 21.344 18.9138 21.42C18.9618 21.494 19.0318 21.542 19.1218 21.568C19.1698 21.582 19.2158 21.59 19.2638 21.59C19.3078 21.59 19.3498 21.584 19.3918 21.572C19.4858 21.544 19.5518 21.474 19.5898 21.364L21.1218 16.868C21.1558 16.77 21.1458 16.68 21.0938 16.602C21.0418 16.524 20.9738 16.476 20.8818 16.452L20.8838 16.45Z" fill="#47494D"/>
<path d="M25.4053 18.716C25.3753 18.674 25.3333 18.632 25.2793 18.592C25.2253 18.552 25.1553 18.508 25.0713 18.462L22.5593 17.146C22.4413 17.086 22.3393 17.07 22.2493 17.104C22.1613 17.136 22.0913 17.204 22.0453 17.308C22.0033 17.402 21.9893 17.5 22.0033 17.6C22.0173 17.7 22.0813 17.78 22.1933 17.836L24.4593 18.976V19.018L22.1933 20.172C22.0813 20.228 22.0173 20.306 22.0033 20.408C21.9893 20.508 22.0033 20.608 22.0453 20.706C22.0913 20.81 22.1613 20.878 22.2533 20.91C22.3453 20.942 22.4493 20.928 22.5673 20.868L25.0733 19.552C25.2473 19.462 25.3593 19.378 25.4113 19.298C25.4633 19.218 25.4893 19.122 25.4893 19.01C25.4893 18.954 25.4833 18.902 25.4713 18.852C25.4593 18.802 25.4393 18.756 25.4073 18.714L25.4053 18.716Z" fill="#47494D"/>
</svg>
