<svg width="40" height="40" viewBox="0 0 40 40" fill="none" xmlns="http://www.w3.org/2000/svg">
<path d="M19.9997 20.2079C23.6514 20.2079 26.6117 17.2476 26.6117 13.5959C26.6117 9.94418 23.6514 6.98389 19.9997 6.98389C16.348 6.98389 13.3877 9.94418 13.3877 13.5959C13.3877 17.2476 16.348 20.2079 19.9997 20.2079Z" fill="#FFC533"/>
<path d="M30.3517 29.3398L27.1657 23.5358C26.7357 22.7538 25.9477 22.2858 25.0557 22.2858C24.1637 22.2858 23.3737 22.7518 22.9457 23.5358L22.2857 24.7378L19.3797 19.4418C18.9637 18.6838 18.2477 18.1918 17.4157 18.0718V16.2278H23.7477C23.8997 16.2278 24.0397 16.1418 24.1057 16.0058C24.1737 15.8698 24.1577 15.7058 24.0657 15.5858L22.5497 13.5978L24.0657 11.6098C24.1577 11.4898 24.1737 11.3258 24.1057 11.1898C24.0377 11.0538 23.8997 10.9678 23.7477 10.9678H17.0157C16.7957 10.9678 16.6157 11.1478 16.6157 11.3678V18.0738C15.7837 18.1938 15.0677 18.6858 14.6517 19.4438L9.48772 28.8558C9.03772 29.6778 9.05372 30.6478 9.52972 31.4538C10.0077 32.2598 10.8517 32.7418 11.7877 32.7418H28.3397C29.1597 32.7418 29.8977 32.3218 30.3157 31.6158C30.7337 30.9098 30.7477 30.0618 30.3517 29.3418V29.3398ZM21.7297 13.3538C21.6197 13.4978 21.6197 13.6958 21.7297 13.8378L22.9397 15.4258H17.4157V11.7638H22.9397L21.7297 13.3518V13.3538ZM29.6257 31.2058C29.3537 31.6658 28.8737 31.9398 28.3397 31.9398H11.7897C11.1377 31.9398 10.5517 31.6058 10.2197 31.0458C9.88772 30.4858 9.87772 29.8098 10.1897 29.2398L15.3537 19.8278C15.6917 19.2118 16.3137 18.8438 17.0157 18.8438C17.7177 18.8438 18.3397 19.2118 18.6777 19.8278L21.9337 25.7618C22.0037 25.8898 22.1377 25.9698 22.2837 25.9698C22.4297 25.9698 22.5637 25.8898 22.6337 25.7618L23.6437 23.9218C23.9297 23.3998 24.4577 23.0878 25.0517 23.0878C25.6457 23.0878 26.1737 23.3998 26.4597 23.9218L29.6457 29.7258C29.9017 30.1938 29.8937 30.7478 29.6217 31.2058H29.6257Z" fill="#47494D"/>
<path d="M14.2595 26.1277C14.1995 26.1277 14.1375 26.1137 14.0795 26.0837C13.8835 25.9837 13.8035 25.7437 13.9035 25.5457L14.3355 24.6957C14.4355 24.4997 14.6775 24.4197 14.8735 24.5197C15.0695 24.6197 15.1495 24.8597 15.0495 25.0577L14.6175 25.9077C14.5475 26.0457 14.4055 26.1257 14.2595 26.1257V26.1277Z" fill="#FFC533"/>
<path d="M12.7077 29.1018C12.6477 29.1018 12.5857 29.0878 12.5277 29.0578C12.3317 28.9578 12.2517 28.7178 12.3517 28.5198L12.7837 27.6698C12.8837 27.4738 13.1257 27.3938 13.3217 27.4938C13.5177 27.5938 13.5977 27.8338 13.4977 28.0318L13.0657 28.8818C12.9957 29.0198 12.8537 29.0998 12.7077 29.0998V29.1018Z" fill="#FFC533"/>
<path d="M15.0417 28.2517C14.9817 28.2517 14.9197 28.2377 14.8617 28.2077C14.6657 28.1077 14.5857 27.8677 14.6857 27.6697L15.1177 26.8197C15.2177 26.6237 15.4597 26.5437 15.6557 26.6437C15.8517 26.7437 15.9317 26.9837 15.8317 27.1817L15.3997 28.0317C15.3297 28.1697 15.1877 28.2497 15.0417 28.2497V28.2517Z" fill="#FFC533"/>
</svg>
