<svg width="40" height="40" viewBox="0 0 40 40" fill="none" xmlns="http://www.w3.org/2000/svg">
<path d="M20.1637 28.0062C26.2079 28.0062 31.1077 23.1064 31.1077 17.0622C31.1077 11.018 26.2079 6.11816 20.1637 6.11816C14.1195 6.11816 9.21973 11.018 9.21973 17.0622C9.21973 23.1064 14.1195 28.0062 20.1637 28.0062Z" fill="#FFC533"/>
<path d="M25.7436 11.1321C24.1596 9.60615 22.0716 8.81415 19.8676 8.89815C15.7436 9.05615 12.3636 12.4101 12.1736 16.5321C12.0696 18.7781 12.9196 20.9781 14.5016 22.5681C15.1956 23.2641 15.5776 24.1641 15.5776 25.1021V25.1581C15.5776 25.9561 15.9616 26.6641 16.5536 27.1121C16.0656 27.4361 15.7436 27.9901 15.7436 28.6181V31.0661C15.7436 31.7561 16.1336 32.3581 16.7036 32.6621C16.7196 32.6701 16.7356 32.6781 16.7516 32.6841C16.9356 32.7761 17.1356 32.8381 17.3496 32.8601C17.7656 34.0581 18.8896 34.8741 20.1836 34.8741C21.4776 34.8741 22.6016 34.0601 23.0176 32.8601C23.9196 32.7581 24.6216 31.9921 24.6216 31.0641V28.6161C24.6216 28.0441 24.3536 27.5341 23.9356 27.2021C23.9236 27.1921 23.9116 27.1841 23.8996 27.1761C23.8696 27.1541 23.8416 27.1321 23.8096 27.1121C24.4016 26.6641 24.7856 25.9561 24.7856 25.1581C24.7856 24.1901 25.1776 23.2601 25.8896 22.5381C27.3776 21.0281 28.1976 19.0301 28.1976 16.9101C28.1976 14.7901 27.3236 12.6581 25.7376 11.1321H25.7436ZM17.5536 27.6101H21.5236L16.5456 28.7641V28.6181C16.5456 28.0621 16.9976 27.6101 17.5536 27.6101ZM16.5596 31.1961L23.8256 29.5101V30.3021L16.9776 31.8901C16.7516 31.7321 16.5976 31.4821 16.5596 31.1961ZM16.5456 30.3781V29.5861L23.5716 27.9561C23.7276 28.1341 23.8256 28.3641 23.8256 28.6181V28.6881L16.5456 30.3761V30.3781ZM22.8176 32.0741H19.7236L23.8196 31.1241C23.7896 31.6521 23.3536 32.0741 22.8176 32.0741ZM25.3256 21.9781C24.4656 22.8501 23.9916 23.9801 23.9916 25.1601C23.9916 26.0701 23.2516 26.8121 22.3396 26.8121H18.0316C17.1216 26.8121 16.3796 26.0721 16.3796 25.1601V25.1041C16.3796 23.9521 15.9156 22.8521 15.0716 22.0041C13.6256 20.5521 12.8796 18.6221 12.9756 16.5701C13.1476 12.8601 16.1896 9.84215 19.9016 9.70015C19.9976 9.69615 20.0936 9.69415 20.1896 9.69415C22.0676 9.69415 23.8336 10.4041 25.1916 11.7101C26.6196 13.0841 27.4056 14.9321 27.4056 16.9121C27.4056 18.8921 26.6676 20.6201 25.3276 21.9781H25.3256Z" fill="#47494D"/>
<path d="M18.9179 16.8064C19.2599 16.8064 19.5379 16.5284 19.5379 16.1864C19.5379 15.8444 19.2599 15.5664 18.9179 15.5664C18.5759 15.5664 18.2979 15.8444 18.2979 16.1864C18.2979 16.5284 18.5759 16.8064 18.9179 16.8064Z" fill="#47494D"/>
<path d="M21.0917 16.8064C21.4337 16.8064 21.7117 16.5284 21.7117 16.1864C21.7117 15.8444 21.4337 15.5664 21.0917 15.5664C20.7497 15.5664 20.4717 15.8444 20.4717 16.1864C20.4717 16.5284 20.7497 16.8064 21.0917 16.8064Z" fill="#47494D"/>
<path d="M21.5573 17.6342C21.3553 17.5442 21.1213 17.6302 21.0313 17.8322C21.0233 17.8482 20.8093 18.2382 20.0093 18.2382C19.2093 18.2382 18.9893 17.8582 18.9733 17.8282C18.8773 17.6342 18.6433 17.5502 18.4473 17.6422C18.2473 17.7342 18.1593 17.9722 18.2513 18.1722C18.2673 18.2082 18.6673 19.0382 20.0093 19.0382C21.3513 19.0382 21.7413 18.2022 21.7573 18.1662C21.8473 17.9642 21.7573 17.7222 21.5573 17.6322V17.6342Z" fill="#47494D"/>
</svg>
