<svg width="40" height="40" viewBox="0 0 40 40" fill="none" xmlns="http://www.w3.org/2000/svg">
<path d="M18.5068 23.266V28.646C18.5068 29.23 18.0328 29.702 17.4508 29.702H13.0228C12.4388 29.702 11.9668 29.23 11.9668 28.646V23.266C11.9668 22.682 12.4388 22.208 13.0228 22.208H17.4508C18.0328 22.208 18.5068 22.682 18.5068 23.266Z" fill="#FFC533"/>
<path d="M28.2783 17.9522H22.8323L25.6643 8.02822C25.6823 7.96822 25.6703 7.90422 25.6323 7.85422C25.5943 7.80422 25.5343 7.77422 25.4723 7.77422H22.1563C22.0683 7.77422 21.9883 7.83222 21.9643 7.91822L20.3383 13.6142L18.6983 7.86422C18.6483 7.69222 18.4923 7.57422 18.3123 7.57422H14.9983C14.8723 7.57422 14.7543 7.63222 14.6783 7.73222C14.6023 7.83422 14.5783 7.96222 14.6143 8.08422L17.4303 17.9522H11.7223C10.1683 17.9522 8.9043 19.2162 8.9043 20.7702V29.6082C8.9043 31.1622 10.1683 32.4262 11.7223 32.4262H28.2783C29.8323 32.4262 31.0963 31.1622 31.0963 29.6082V20.7702C31.0963 19.2162 29.8323 17.9522 28.2783 17.9522ZM30.2963 29.6082C30.2963 30.7222 29.3923 31.6262 28.2783 31.6262H11.7223C10.6083 31.6262 9.7043 30.7222 9.7043 29.6082V20.7702C9.7043 19.6582 10.6083 18.7522 11.7223 18.7522H17.6603L17.8803 19.5242H17.7623C17.3743 19.5242 17.0623 19.8362 17.0623 20.2242C17.0623 20.6122 17.3743 20.9242 17.7623 20.9242H22.2383C22.6263 20.9242 22.9383 20.6102 22.9383 20.2242C22.9383 19.8842 22.7003 19.6042 22.3803 19.5382C22.3343 19.5282 22.2863 19.5242 22.2383 19.5242H22.0263L21.9963 19.4202L21.8063 18.7522H28.2783C29.3923 18.7522 30.2963 19.6582 30.2963 20.7702V29.6082ZM18.2623 17.9522L15.5283 8.37422H18.0123L19.9243 15.0702L20.0283 15.4342L20.1323 15.8002L20.7463 17.9522L20.8603 18.3522L20.9743 18.7522L21.1943 19.5242L21.2803 19.8242H18.7963L18.7863 19.7862L18.7103 19.5242L18.6823 19.4222L18.4903 18.7522L18.3763 18.3522L18.2623 17.9522Z" fill="#47494D"/>
<path d="M16.1522 25.7083C16.4042 25.4663 16.5622 25.1283 16.5622 24.7523C16.5622 24.0203 15.9682 23.4263 15.2362 23.4263C14.5042 23.4263 13.9102 24.0203 13.9102 24.7523C13.9102 25.1283 14.0682 25.4663 14.3202 25.7083C13.7042 26.0363 13.2842 26.6863 13.2842 27.4323V28.1843C13.2842 28.3503 13.4182 28.4843 13.5842 28.4843C13.7502 28.4843 13.8842 28.3503 13.8842 28.1843V27.4323C13.8842 26.6863 14.4902 26.0803 15.2362 26.0803C15.9822 26.0803 16.5882 26.6863 16.5882 27.4323V28.1883C16.5882 28.3543 16.7222 28.4883 16.8882 28.4883C17.0542 28.4883 17.1882 28.3543 17.1882 28.1883V27.4323C17.1882 26.6863 16.7682 26.0383 16.1522 25.7083ZM14.5082 24.7523C14.5082 24.3523 14.8342 24.0263 15.2342 24.0263C15.6342 24.0263 15.9602 24.3523 15.9602 24.7523C15.9602 25.1523 15.6342 25.4783 15.2342 25.4783C14.8342 25.4783 14.5082 25.1523 14.5082 24.7523Z" fill="#47494D"/>
<path d="M27.19 23.5781H21.398C21.178 23.5781 20.998 23.7561 20.998 23.9781C20.998 24.2001 21.178 24.3781 21.398 24.3781H27.19C27.412 24.3781 27.59 24.1981 27.59 23.9781C27.59 23.7581 27.412 23.5781 27.19 23.5781Z" fill="#47494D"/>
<path d="M27.19 25.3784H21.398C21.178 25.3784 20.998 25.5564 20.998 25.7784C20.998 26.0004 21.178 26.1784 21.398 26.1784H27.19C27.412 26.1784 27.59 25.9984 27.59 25.7784C27.59 25.5584 27.412 25.3784 27.19 25.3784Z" fill="#47494D"/>
<path d="M25.202 27.1782H21.398C21.178 27.1782 20.998 27.3562 20.998 27.5782C20.998 27.8002 21.178 27.9782 21.398 27.9782H25.202C25.422 27.9782 25.602 27.7982 25.602 27.5782C25.602 27.3582 25.422 27.1782 25.202 27.1782Z" fill="#47494D"/>
</svg>
