<svg width="40" height="40" viewBox="0 0 40 40" fill="none" xmlns="http://www.w3.org/2000/svg">
<path d="M26.1653 23.0803C26.1653 26.4203 23.4573 29.1283 20.1173 29.1283C16.7773 29.1283 14.0693 26.4203 14.0693 23.0803C14.0693 19.7403 16.7773 17.0303 20.1173 17.0303V23.0803L25.8413 21.1323C26.0533 21.7423 26.1653 22.3983 26.1653 23.0803Z" fill="#FFC533"/>
<path d="M27.8337 16.1162C27.8717 16.0742 27.9077 16.0282 27.9417 15.9802C28.6117 15.0482 28.3977 13.7462 27.4657 13.0782C26.5337 12.4102 25.2317 12.6242 24.5637 13.5562C24.5417 13.5882 24.5197 13.6202 24.5017 13.6522C23.6837 13.2702 22.8097 12.9922 21.8937 12.8342V11.6742H22.8237C23.8797 11.6742 24.7377 10.8162 24.7377 9.76019C24.7377 8.70419 23.8797 7.84619 22.8237 7.84619H17.4117C16.3557 7.84619 15.4977 8.70419 15.4977 9.76019C15.4977 10.8162 16.3557 11.6742 17.4117 11.6742H18.3417V12.8342C17.4257 12.9922 16.5517 13.2702 15.7337 13.6522C15.7157 13.6202 15.6937 13.5882 15.6717 13.5562C15.0037 12.6242 13.7017 12.4102 12.7697 13.0782C11.8377 13.7462 11.6237 15.0482 12.2937 15.9802C12.3277 16.0282 12.3637 16.0742 12.4017 16.1162C10.7357 17.9622 9.71973 20.4042 9.71973 23.0802C9.71973 28.8122 14.3837 33.4762 20.1177 33.4762C25.8517 33.4762 30.5157 28.8122 30.5157 23.0802C30.5157 20.4042 29.4997 17.9622 27.8337 16.1162ZM20.1177 32.6762C14.8257 32.6762 10.5197 28.3722 10.5197 23.0802C10.5197 20.5922 11.4717 18.3202 13.0297 16.6142C13.1237 16.5102 13.2197 16.4102 13.3197 16.3122C13.4237 16.2062 13.5337 16.1022 13.6437 16.0002C14.1377 15.5482 14.6797 15.1462 15.2597 14.8062C15.3877 14.7282 15.5197 14.6562 15.6517 14.5862C15.7757 14.5202 15.8997 14.4582 16.0257 14.3982C16.7517 14.0542 17.5297 13.8002 18.3417 13.6482C18.4737 13.6222 18.6077 13.6002 18.7417 13.5802C19.1917 13.5162 19.6497 13.4822 20.1177 13.4822C20.5857 13.4822 21.0437 13.5162 21.4937 13.5802C21.6277 13.6002 21.7617 13.6222 21.8937 13.6482C22.7057 13.8002 23.4837 14.0542 24.2097 14.3982C24.3357 14.4582 24.4597 14.5202 24.5837 14.5862C24.7157 14.6562 24.8477 14.7282 24.9757 14.8062C25.5557 15.1462 26.0977 15.5482 26.5917 16.0002C26.7017 16.1022 26.8117 16.2062 26.9157 16.3122C27.0157 16.4102 27.1117 16.5102 27.2057 16.6142C28.7637 18.3202 29.7157 20.5922 29.7157 23.0802C29.7157 28.3722 25.4097 32.6762 20.1177 32.6762ZM17.4117 8.64619H22.8237C23.4377 8.64619 23.9377 9.14619 23.9377 9.76019C23.9377 10.3742 23.4377 10.8742 22.8237 10.8742H17.4117C16.7977 10.8742 16.2977 10.3742 16.2977 9.76019C16.2977 9.14619 16.7977 8.64619 17.4117 8.64619ZM21.0937 11.6742V12.7282C20.7717 12.6982 20.4477 12.6822 20.1177 12.6822C19.7877 12.6822 19.4637 12.6982 19.1417 12.7282V11.6742H21.0937Z" fill="#47494D"/>
<path d="M20.1179 14.9663C15.6439 14.9663 12.0059 18.6063 12.0059 23.0803C12.0059 27.5543 15.6439 31.1923 20.1179 31.1923C24.5919 31.1923 28.2299 27.5523 28.2299 23.0803C28.2299 18.6083 24.5919 14.9663 20.1179 14.9663ZM20.1179 30.3923C16.0859 30.3923 12.8059 27.1123 12.8059 23.0803C12.8059 19.0483 16.0859 15.7663 20.1179 15.7663C24.1499 15.7663 27.4299 19.0483 27.4299 23.0803C27.4299 27.1123 24.1499 30.3923 20.1179 30.3923Z" fill="#47494D"/>
<path d="M19.2173 19.856C18.9293 19.856 18.6953 20.09 18.6953 20.378C18.6953 20.666 18.9293 20.9 19.2173 20.9C19.5053 20.9 19.7393 20.666 19.7393 20.378C19.7393 20.09 19.5053 19.856 19.2173 19.856Z" fill="#47494D"/>
<path d="M21.0474 19.856C20.7594 19.856 20.5254 20.09 20.5254 20.378C20.5254 20.666 20.7594 20.9 21.0474 20.9C21.3354 20.9 21.5694 20.666 21.5694 20.378C21.5694 20.09 21.3354 19.856 21.0474 19.856Z" fill="#47494D"/>
</svg>
