<svg width="40" height="40" viewBox="0 0 40 40" fill="none" xmlns="http://www.w3.org/2000/svg">
<path d="M16.9403 13.5521L16.1083 12.6321C16.2223 12.2781 16.3003 11.9061 16.3343 11.5181C16.5803 8.72211 14.5143 6.25611 11.7183 6.01011C8.92231 5.76411 6.45631 7.83011 6.21031 10.6261C5.96431 13.4221 8.03031 15.8881 10.8263 16.1341C12.7343 16.3021 14.4903 15.3921 15.4903 13.9081L16.6283 14.1121C16.9463 14.1681 17.1563 13.7921 16.9403 13.5521Z" fill="#FFC533"/>
<path d="M29.3604 8.72998H10.6004C8.49041 8.72998 6.77441 10.446 6.77441 12.558V22.074C6.77441 24.184 8.49041 25.902 10.6004 25.902H29.3604C31.4704 25.902 33.1864 24.184 33.1864 22.074V12.558C33.1864 10.446 31.4704 8.72998 29.3604 8.72998ZM12.5924 23.788C12.9844 23.782 13.3544 23.922 13.6364 24.194C13.8884 24.438 14.0364 24.758 14.0664 25.102H11.2044C11.2664 24.388 11.8704 23.808 12.5944 23.788H12.5924ZM19.8664 15.148C19.8664 13.482 21.2224 12.126 22.8884 12.126C24.5544 12.126 25.9104 13.482 25.9104 15.148C25.9104 16.052 25.5124 16.864 24.8804 17.416C24.6064 17.658 24.2904 17.85 23.9424 17.98C23.6144 18.102 23.2584 18.17 22.8884 18.17C22.5184 18.17 22.1624 18.102 21.8344 17.98C21.4864 17.85 21.1704 17.658 20.8964 17.416C20.2644 16.864 19.8664 16.052 19.8664 15.148ZM22.8884 18.97C23.6704 18.97 24.3984 18.734 25.0044 18.33C26.7704 19.134 28.0004 20.916 28.0004 22.98V25.102H17.7784V22.98C17.7784 20.916 19.0084 19.134 20.7744 18.328C21.3804 18.734 22.1064 18.97 22.8884 18.97ZM32.3864 22.074C32.3864 23.744 31.0284 25.102 29.3604 25.102H28.8004V22.98C28.8004 20.726 27.5304 18.762 25.6684 17.768C26.3144 17.084 26.7104 16.162 26.7104 15.148C26.7104 13.04 24.9964 11.326 22.8884 11.326C20.7804 11.326 19.0664 13.04 19.0664 15.148C19.0664 16.162 19.4624 17.084 20.1104 17.768C18.2484 18.762 16.9784 20.726 16.9784 22.98V25.102H14.8644C14.8344 24.54 14.6004 24.016 14.1924 23.62C13.8564 23.294 13.4424 23.088 12.9904 23.016C12.9104 21.242 13.2964 19.866 14.1384 18.918C14.5384 18.466 14.9984 18.168 15.4244 17.972C15.7024 18.474 16.2364 18.814 16.8484 18.814C17.7424 18.814 18.4704 18.086 18.4704 17.19C18.4704 16.294 17.7424 15.568 16.8484 15.568C15.9544 15.568 15.2284 16.292 15.2244 17.182C14.6804 17.416 14.0784 17.786 13.5504 18.376C12.5604 19.482 12.1044 21.048 12.1924 23.034C11.2204 23.234 10.4624 24.084 10.4024 25.094C8.82641 24.992 7.57641 23.676 7.57641 22.074V12.558C7.57641 10.888 8.93441 9.52998 10.6024 9.52998H29.3624C31.0304 9.52998 32.3884 10.888 32.3884 12.558V22.074H32.3864ZM16.0244 17.19C16.0244 17.088 16.0424 16.99 16.0784 16.902C16.1944 16.59 16.4964 16.368 16.8484 16.368C17.3024 16.368 17.6704 16.736 17.6704 17.19C17.6704 17.644 17.3024 18.014 16.8484 18.014C16.5864 18.014 16.3524 17.89 16.2004 17.698C16.0904 17.558 16.0244 17.382 16.0244 17.19Z" fill="#47494D"/>
<path d="M22.2468 15.0761C22.4478 15.0761 22.6108 14.9132 22.6108 14.7121C22.6108 14.5111 22.4478 14.3481 22.2468 14.3481C22.0458 14.3481 21.8828 14.5111 21.8828 14.7121C21.8828 14.9132 22.0458 15.0761 22.2468 15.0761Z" fill="#47494D"/>
<path d="M23.5242 15.0761C23.7252 15.0761 23.8882 14.9132 23.8882 14.7121C23.8882 14.5111 23.7252 14.3481 23.5242 14.3481C23.3231 14.3481 23.1602 14.5111 23.1602 14.7121C23.1602 14.9132 23.3231 15.0761 23.5242 15.0761Z" fill="#47494D"/>
<path d="M22.8887 16.4538C23.7087 16.4538 23.9507 15.9598 23.9767 15.9038C24.0427 15.7518 23.9767 15.5698 23.8247 15.5018C23.6747 15.4358 23.4987 15.4978 23.4327 15.6498C23.4287 15.6578 23.3147 15.8538 22.8887 15.8538C22.4627 15.8538 22.3487 15.6658 22.3367 15.6458C22.2647 15.5018 22.0906 15.4418 21.9426 15.5098C21.7926 15.5778 21.7286 15.7578 21.7966 15.9078C21.8226 15.9638 22.0746 16.4538 22.8887 16.4538Z" fill="#47494D"/>
<path d="M11.4269 32.6069C12.7415 32.3537 13.6019 31.0828 13.3488 29.7682C13.0956 28.4536 11.8247 27.5932 10.5102 27.8463C9.19556 28.0995 8.3351 29.3704 8.58825 30.685C8.8414 31.9995 10.1123 32.86 11.4269 32.6069Z" fill="#FF3440"/>
<path d="M18.9646 31.982H16.6066V28.068C16.6066 27.848 16.4266 27.668 16.2066 27.668C15.9866 27.668 15.8066 27.848 15.8066 28.068V32.382C15.8066 32.602 15.9866 32.782 16.2066 32.782H18.9646C19.1846 32.782 19.3646 32.602 19.3646 32.382C19.3646 32.162 19.1846 31.982 18.9646 31.982Z" fill="#47494D"/>
<path d="M26.6229 27.7C26.4189 27.614 26.1849 27.71 26.0989 27.914L24.6549 31.35L23.2129 27.914C23.1269 27.71 22.8929 27.614 22.6889 27.7C22.4849 27.786 22.3889 28.02 22.4749 28.224L24.2849 32.538C24.3469 32.686 24.4929 32.784 24.6529 32.784C24.8129 32.784 24.9589 32.688 25.0209 32.538L26.8349 28.224C26.9209 28.02 26.8249 27.786 26.6209 27.7H26.6229Z" fill="#47494D"/>
<path d="M31.4187 28.468C31.6387 28.468 31.8187 28.288 31.8187 28.068C31.8187 27.848 31.6387 27.668 31.4187 27.668H28.3727C28.1527 27.668 27.9727 27.848 27.9727 28.068V32.382C27.9727 32.602 28.1527 32.782 28.3727 32.782H31.4187C31.6387 32.782 31.8187 32.602 31.8187 32.382C31.8187 32.162 31.6387 31.982 31.4187 31.982H28.7727V30.612H31.0267C31.2467 30.612 31.4267 30.432 31.4267 30.212C31.4267 29.992 31.2467 29.812 31.0267 29.812H28.7727V28.468H31.4187Z" fill="#47494D"/>
<path d="M20.7242 27.668C20.5042 27.668 20.3242 27.848 20.3242 28.068V32.382C20.3242 32.602 20.5042 32.782 20.7242 32.782C20.9442 32.782 21.1242 32.602 21.1242 32.382V28.068C21.1242 27.848 20.9442 27.668 20.7242 27.668Z" fill="#47494D"/>
</svg>
