<svg width="40" height="40" viewBox="0 0 40 40" fill="none" xmlns="http://www.w3.org/2000/svg">
<path d="M19.5675 13.9342C19.5675 13.6222 19.3135 13.3682 19.0015 13.3682C18.6895 13.3682 18.4355 13.6222 18.4355 13.9342C18.4355 14.2462 18.6895 14.5002 19.0015 14.5002C19.3135 14.5002 19.5675 14.2462 19.5675 13.9342Z" fill="#47494D"/>
<path d="M20.9859 14.5002C21.2985 14.5002 21.5519 14.2468 21.5519 13.9342C21.5519 13.6216 21.2985 13.3682 20.9859 13.3682C20.6733 13.3682 20.4199 13.6216 20.4199 13.9342C20.4199 14.2468 20.6733 14.5002 20.9859 14.5002Z" fill="#47494D"/>
<path d="M31.234 20.148V16.758C31.234 16.358 31.046 15.976 30.722 15.71C30.348 15.406 29.834 15.284 29.344 15.384L28.798 15.496V14.432C28.798 14.316 28.748 14.206 28.66 14.13C28.574 14.054 28.456 14.02 28.342 14.038C27.734 14.126 27.132 14.25 26.55 14.4C26.194 11.098 23.392 8.52002 20 8.52002C16.608 8.52002 13.804 11.098 13.448 14.4C12.866 14.25 12.264 14.126 11.656 14.038C11.542 14.02 11.426 14.054 11.338 14.13C11.25 14.206 11.2 14.316 11.2 14.432V15.496L10.654 15.384C10.164 15.284 9.64995 15.406 9.27795 15.71C8.95195 15.976 8.76595 16.358 8.76595 16.758V20.148C7.74995 20.45 7.00195 21.458 7.00195 22.65C7.00195 23.842 7.74995 24.852 8.76595 25.154V27.804C8.76595 28.466 9.26195 29.032 9.97195 29.178L18.358 30.894C18.556 31.244 18.932 31.48 19.364 31.48H20.634C21.066 31.48 21.442 31.244 21.64 30.894L30.026 29.178C30.738 29.032 31.234 28.466 31.234 27.804V25.154C32.25 24.85 32.998 23.842 32.998 22.65C32.998 21.458 32.25 20.452 31.234 20.148ZM31.234 24.298C31.108 24.36 30.974 24.404 30.834 24.43C30.754 24.442 30.672 24.45 30.588 24.45C30.534 24.45 30.484 24.446 30.434 24.438C29.794 24.36 29.47 23.758 29.47 22.65C29.47 21.542 29.794 20.942 30.434 20.864C30.484 20.856 30.534 20.852 30.588 20.852C30.672 20.852 30.754 20.86 30.834 20.872C30.974 20.898 31.108 20.942 31.234 21.004C31.802 21.282 32.198 21.914 32.198 22.65C32.198 23.386 31.802 24.02 31.234 24.298ZM30.434 27.804C30.434 28.082 30.2 28.324 29.866 28.394L21.794 30.046V17.746L25.472 16.994L25.924 16.9L26.364 16.81L28.414 16.392C28.458 16.39 28.502 16.38 28.54 16.366L29.504 16.168C29.76 16.116 30.026 16.176 30.216 16.33C30.296 16.396 30.434 16.54 30.434 16.758V20.058C29.312 20.134 28.67 21.07 28.67 22.65C28.67 24.23 29.312 25.168 30.434 25.244V27.804ZM10.132 28.394C9.79795 28.324 9.56595 28.082 9.56595 27.804V25.244C10.69 25.166 11.328 24.23 11.328 22.65C11.328 21.07 10.69 20.136 9.56595 20.058V16.758C9.56595 16.54 9.70195 16.396 9.78395 16.33C9.97195 16.176 10.238 16.116 10.494 16.168L11.46 16.366C11.498 16.38 11.54 16.39 11.584 16.392L13.634 16.81L14.074 16.9L14.526 16.994L18.204 17.746V30.046L10.132 28.394ZM8.76595 21.004C8.88995 20.942 9.02595 20.896 9.16595 20.872C9.24595 20.86 9.32595 20.852 9.40995 20.852C9.46395 20.852 9.51595 20.856 9.56595 20.864C10.204 20.942 10.528 21.544 10.528 22.65C10.528 23.756 10.204 24.36 9.56595 24.438C9.51595 24.446 9.46395 24.45 9.40995 24.45C9.32595 24.45 9.24595 24.442 9.16595 24.43C9.02595 24.406 8.88995 24.36 8.76595 24.298C8.19795 24.02 7.80195 23.386 7.80195 22.65C7.80195 21.914 8.19795 21.282 8.76595 21.004ZM12 14.902C12.478 14.986 12.95 15.094 13.412 15.218C13.548 15.254 13.682 15.29 13.814 15.328C13.952 15.368 14.088 15.41 14.222 15.452L17.664 16.808C17.676 16.814 17.688 16.822 17.702 16.826L17.514 16.788L14.302 16.13L13.88 16.044L13.466 15.96L12 15.66V14.902ZM27.998 14.902V15.66L26.534 15.96L26.118 16.044L25.696 16.13L22.484 16.788L22.3 16.826L22.336 16.808C23.146 16.422 24.376 15.886 25.776 15.452C25.91 15.41 26.046 15.368 26.184 15.328C26.316 15.29 26.45 15.254 26.586 15.218L27.998 14.902ZM19.004 30.32V17.562C19.004 17.364 19.166 17.202 19.364 17.202H20.634C20.832 17.202 20.994 17.364 20.994 17.562V30.32C20.994 30.518 20.832 30.68 20.634 30.68H19.364C19.166 30.68 19.004 30.518 19.004 30.32ZM20 9.32002C23.026 9.32002 25.516 11.652 25.766 14.616C23.542 15.276 21.72 16.202 21.134 16.516H21.132C20.982 16.442 20.812 16.402 20.634 16.402H19.364C19.186 16.402 19.016 16.442 18.866 16.516C18.864 16.514 18.864 16.516 18.864 16.516C18.278 16.202 16.454 15.276 14.232 14.616C14.482 11.652 16.974 9.32002 20 9.32002Z" fill="#47494D"/>
<path d="M28.5099 18.9458V19.9278C28.5099 20.2318 28.2939 20.4938 27.9939 20.5498L24.9179 21.1298C24.5299 21.2038 24.1699 20.9058 24.1699 20.5098V19.5258C24.1699 19.2218 24.3859 18.9618 24.6839 18.9058L24.9219 18.8618L25.4859 18.7538L27.7599 18.3238C28.1499 18.2518 28.5099 18.5498 28.5099 18.9458Z" fill="white"/>
<path d="M28.5099 18.9458V19.9278C28.5099 20.2318 28.2939 20.4938 27.9939 20.5498L24.9179 21.1298C24.5299 21.2038 24.1699 20.9058 24.1699 20.5098V19.5258C24.1699 19.2218 24.3859 18.9618 24.6839 18.9058L24.9219 18.8618L25.4859 18.7538L27.7599 18.3238C28.1499 18.2518 28.5099 18.5498 28.5099 18.9458Z" fill="#FFC533"/>
</svg>
